<svg width="1776" height="302" xmlns="http://www.w3.org/2000/svg" xmlns:xlink="http://www.w3.org/1999/xlink" overflow="hidden"><defs><clipPath id="clip0"><rect x="0" y="0" width="1776" height="302"/></clipPath><linearGradient x1="1774.38" y1="150.862" x2="0" y2="150.862" gradientUnits="userSpaceOnUse" spreadMethod="reflect" id="fill1"><stop offset="0" stop-color="#FF0000"/><stop offset="0.16" stop-color="#FFC000"/><stop offset="0.34" stop-color="#FFFF00"/><stop offset="0.5" stop-color="#92D050"/><stop offset="0.69" stop-color="#0070C0"/><stop offset="0.85" stop-color="#002060"/><stop offset="1" stop-color="#7030A0"/></linearGradient></defs><g clip-path="url(#clip0)"><rect x="0" y="0" width="1774.38" height="301.724" fill="url(#fill1)" transform="scale(1.00092 1)"/><path d="M9.81138 70.0989C9.67536 69.2893 9.60409 68.4661 9.40349 67.6697 9.19484 66.8417 8.85958 66.0502 8.58755 65.2404L8.17966 64.0257C8.17949 64.025 7.36406 61.597 7.36371 61.5965 7.09185 61.1916 6.747 60.8264 6.54794 60.3818 6.19864 59.6018 6.00404 58.7622 5.732 57.9526 5.59598 57.5477 5.56257 57.0931 5.32411 56.7379L4.50834 55.5232C4.37232 54.9833 4.25429 54.4387 4.10028 53.9037 3.98208 53.4932 3.77668 53.1074 3.69239 52.689 1.31154 40.8723 4.07373 53.7442 2.46856 44.1865 2.39781 43.7655 2.165 43.3858 2.06068 42.9718 1.89245 42.3043 1.8032 41.6192 1.65279 40.9474 1.53116 40.4042 1.35488 39.8735 1.2449 39.3279 0.961214 37.9201 0.625449 35.4297 0.428958 34.0645-0.0316922 24.9208-0.244629 25.4695 0.428958 15.4398 0.466303 14.8847 0.74468 14.3692 0.836844 13.8203 1.60568 9.24261 0.777743 11.9724 1.65279 9.36674 1.78881 7.88221 1.90341 6.39548 2.06068 4.91299 2.98711-3.8226 2.25357 1.66867 19.1938 2.07878 21.6605 2.69071 20.2926 2.3073 23.273 3.29346L24.4968 3.6983C24.9047 3.96831 25.2821 4.29052 25.7207 4.50815 26.1053 4.69893 26.5685 4.70573 26.9443 4.91299 27.8016 5.38567 28.576 5.99268 29.392 6.53252L34.2871 9.77157 36.7346 11.3911C37.1425 11.6611 37.4934 12.0469 37.9585 12.2008 38.3663 12.3358 38.8064 12.3985 39.1823 12.6058 40.0394 13.0785 40.814 13.6855 41.6298 14.2253L42.8536 15.035C43.2615 15.305 43.6123 15.691 44.0774 15.8448L46.5249 16.6545C47.4152 19.3049 46.1787 16.7035 48.1567 18.2741 48.5395 18.5781 48.6259 19.1446 48.9726 19.4887 49.3193 19.8329 49.7885 20.0286 50.1964 20.2984 51.2841 23.5376 49.6525 19.7586 51.8281 21.9179 52.1322 22.2197 52.0438 22.7509 52.236 23.1326 52.4553 23.5679 52.8325 23.912 53.0518 24.3473 53.2442 24.729 53.251 25.189 53.4599 25.562 53.9361 26.4127 54.5477 27.1815 55.0916 27.9912 55.3634 28.3961 55.7523 28.7443 55.9074 29.2059 56.0434 29.6107 56.1064 30.0476 56.3152 30.4206 56.7915 31.2712 57.947 32.8498 57.947 32.8498 56.8809 39.1992 58.3379 31.3002 56.7233 37.7084 56.5873 38.2482 56.5361 38.8165 56.3152 39.3279 56.1222 39.7751 55.7713 40.1378 55.4995 40.5426 55.4032 40.9247 54.9499 42.9011 54.6835 43.3768 54.2073 44.2275 53.5957 44.9963 53.0518 45.806 52.7799 46.2109 52.6439 46.7509 52.236 47.0207L51.0122 47.8304C48.9875 50.845 51.589 47.1435 48.9726 50.2598 48.6588 50.6337 48.5034 51.1303 48.1567 51.4745 47.8101 51.8184 47.2974 51.9587 46.933 52.2841 45.9324 53.178 44.8242 54.0067 44.0774 55.1183 42.9896 56.7379 43.6694 56.063 42.0378 57.1427 41.7658 57.5476 41.5909 58.0369 41.2219 58.3574 40.4841 58.9982 38.7744 59.9769 38.7744 59.9769 38.5024 60.3818 38.3052 60.8475 37.9585 61.1916 37.6117 61.5358 37.1336 61.7185 36.7346 62.0013 36.1813 62.3936 35.6598 62.829 35.1029 63.216 34.2996 63.774 33.2437 64.0569 32.6554 64.8355 31.1736 66.7965 32.0766 66.2417 30.2078 66.8599 28.3833 69.5764 30.5326 66.915 28.1682 68.4794 25.1122 70.5014 28.6303 69.1362 25.7207 70.0989 22.7389 72.0721 26.4881 69.6637 22.8651 71.7185 20.6506 72.9745 22.6614 72.1908 20.4175 72.9332 19.8736 72.7981 19.3228 72.6881 18.7857 72.5283 17.5501 72.1604 16.3382 71.7185 15.1144 71.3136L13.8906 70.9088C13.4827 70.7738 13.0969 70.5038 12.6669 70.5038L9.81138 70.0989Z" stroke="#000000" stroke-width="1.33186" stroke-miterlimit="8" fill="#FFF2CC" fill-rule="evenodd" transform="matrix(1.00092 0 -0 1 1362.5 130.381)"/><path d="M0.868554 18.5445C1.48084 16.9991 3.42725 18.126 4.13399 17.7381 4.99174 17.2675 5.76671 16.6631 6.58315 16.1256L7.80773 15.3194C8.55252 14.2157 8.55938 13.8697 9.84859 13.3037 10.6349 12.9585 11.5816 12.9688 12.2976 12.4974L15.9713 10.0786C16.3795 9.80993 16.7303 9.42546 17.1957 9.27224L18.4203 8.86914C22.0233 6.49661 16.2636 10.136 22.0939 7.25659 22.6381 6.98774 23.1983 6.74836 23.7266 6.45023 24.1526 6.20982 24.5029 5.84076 24.9512 5.64403 25.7376 5.29883 26.5839 5.10651 27.4003 4.83767L29.8493 4.03148 33.5229 2.82202 34.7475 2.41892C35.1556 2.2845 35.5461 2.07592 35.9721 2.01582 36.9244 1.8814 37.8804 1.76882 38.8294 1.61256 39.5136 1.49997 40.1859 1.32204 40.8702 1.20946 41.8192 1.0532 42.7751 0.940785 43.7275 0.806363 44.6936 0.488253 46.0082 0 46.993 0 47.554 0 48.0814 0.268844 48.6257 0.403266 48.7618 0.806363 48.8415 1.23248 49.0338 1.61256 49.2532 2.04596 49.6778 2.3683 49.8501 2.82202 50.5484 4.66109 49.9116 4.55562 50.6665 6.04713 50.8859 6.48053 51.2836 6.81388 51.4828 7.25659 51.4838 7.25896 52.5029 10.2789 52.7074 10.8848L53.5238 13.3037C53.6599 13.7068 53.8276 14.1008 53.932 14.513L54.3401 16.1256C55.257 24.2774 55.042 20.8608 54.3401 35.0731 54.3192 35.4976 54.0502 35.8739 53.932 36.2826 53.7779 36.8154 53.6779 37.3624 53.5238 37.8952 53.4055 38.3038 53.2338 38.6959 53.1155 39.1046 52.8303 40.0906 52.3762 42.4173 51.8911 43.1359L51.0747 44.3454C50.9386 44.7485 50.8755 45.1834 50.6665 45.5548 50.19 46.4018 49.3441 47.0543 49.0338 47.9736 48.0622 50.8522 48.6947 49.6854 47.4011 51.6018L46.1765 55.2302C46.0404 55.6333 45.8728 56.0272 45.7684 56.4395 45.6323 56.977 45.5214 57.5213 45.3602 58.052 45.1129 58.8662 44.816 59.6646 44.5438 60.4709L43.7275 62.8897 42.5029 66.5181 42.0948 67.7274 41.6865 68.9368C39.7684 67.0421 40.7823 68.2017 38.8294 65.3086 38.5572 64.9055 38.4211 64.3678 38.0129 64.0992L36.7883 63.293C36.2223 62.5475 35.1923 61.0325 34.3393 60.4709 33.9813 60.2353 33.5229 60.2023 33.1148 60.0678 32.2985 59.2615 31.7611 58.0095 30.6658 57.6489L28.2166 56.8427C27.8085 56.7083 27.3501 56.6751 26.992 56.4395L24.543 54.8269C24.1349 54.5582 23.7838 54.1739 23.3185 54.0207L22.0939 53.6176C20.2683 50.9128 22.4189 53.5628 20.053 52.0051 16.9832 49.9838 20.4221 51.6687 18.0122 49.5862 17.2737 48.9481 16.3795 48.5111 15.563 47.9736L14.3386 47.1674C12.3108 44.1634 14.9176 47.8539 12.2976 44.7485 11.9835 44.3762 11.7953 43.9113 11.4813 43.539 11.1117 43.1011 10.6263 42.7677 10.2567 42.3297 9.94269 41.9574 9.72551 41.5146 9.44045 41.1203 9.045 40.5734 8.61132 40.0544 8.21587 39.5077 7.93064 39.1134 7.64283 38.719 7.39942 38.2983 6.97226 37.56 6.43008 36.1314 5.76671 35.4762 5.41994 35.1338 4.95043 34.9387 4.5423 34.67 4.40619 34.2669 4.3726 33.8143 4.13399 33.4606 3.81379 32.9862 3.27915 32.6891 2.90958 32.2511 2.59555 31.879 2.36534 31.4449 2.09314 31.0418 1.95703 30.6387 1.8775 30.2125 1.685 29.8324 1.46559 29.399 1.06174 29.0683 0.868554 28.6229 0.647602 28.1137 0.68137 27.5196 0.460418 27.0104-0.5067 24.7812 0.256264 20.0898 0.868554 18.5445Z" stroke="#000000" stroke-width="1.33186" stroke-miterlimit="8" fill="#FFF2CC" fill-rule="evenodd" transform="matrix(1.00092 0 -0 1 1462.5 138.373)"/><path d="M7.78231 45.2124C7.30447 44.5335 5.62551 42.6521 5.32466 41.9539 5.10295 41.4394 5.13683 40.8391 4.91511 40.3246 4.72126 39.8746 4.31618 39.5405 4.09601 39.1026 3.768 38.4504 3.45219 36.862 3.27674 36.2515 3.15806 35.8386 3.00377 35.4368 2.86719 35.0295 2.73062 33.8075 2.66096 32.5764 2.45764 31.3637 2.3866 30.9401 2.09832 30.5681 2.04792 30.1417 1.82397 28.249 1.87609 26.3301 1.63837 24.4391 1.46568 23.0652 1.01622 21.7367 0.819272 20.366 0.32991 16.9605 0.643652 18.4461 0 15.8855 0.136574 12.2196 0.186284 8.54955 0.40955 4.88783 0.459776 4.06352 0.617851 3.24521 0.819272 2.444 1.02878 1.61097 1.63837 0 1.63837 0 2.32107 0.135816 3.0146 0.225276 3.68629 0.407447 4.51933 0.633407 5.30626 1.01383 6.14394 1.222L7.78231 1.62928C9.22408 2.58512 10.3043 3.44722 11.8782 4.07327 12.6799 4.39212 13.5165 4.61619 14.3358 4.88783 14.7453 5.02364 15.2053 5.05717 15.5646 5.29527L19.2509 7.7391C19.6605 8.01073 20.0127 8.39902 20.4797 8.55382 20.8893 8.68964 21.331 8.75259 21.7084 8.9611 25.9332 11.2951 22.6145 10.0762 25.3948 10.9977 26.7601 13.0344 25.8044 11.948 28.6716 13.8489L29.9002 14.6635 31.1291 15.4782C32.2211 18.7369 30.5829 14.9351 32.7674 17.1075 34.9519 19.2798 31.1289 17.6507 34.4058 18.7368 34.679 19.144 34.8546 19.6363 35.2251 19.9587 35.9659 20.6034 37.6825 21.588 37.6825 21.588 38.712 24.6594 37.3231 20.873 38.9114 24.0319 40.6072 27.4047 37.7923 22.9737 40.1402 26.4758 40.4132 27.2904 41.0131 28.0627 40.9593 28.9197 40.8227 31.092 40.7789 33.2721 40.5497 35.4368 40.5045 35.8637 40.3499 36.2835 40.1402 36.6588 39.662 37.5146 39.3209 38.5595 38.5018 39.1026L37.273 39.9173C36.5521 42.0681 37.2226 40.9012 34.4058 42.7686L31.9483 44.3979C31.5388 44.6695 31.1865 45.0576 30.7195 45.2124L29.4907 45.6197C27.2419 47.856 28.5849 47.0063 25.3948 48.0637L24.166 48.471C23.8929 48.8783 23.7642 49.4335 23.3468 49.693 22.6145 50.1482 21.7084 50.2361 20.8893 50.5075 20.4797 50.6433 20.0198 50.6769 19.6605 50.915 19.2509 51.1864 18.872 51.5106 18.4316 51.7295 17.4956 52.195 16.0892 52.312 15.1549 52.5443 14.7361 52.6484 14.3358 52.8157 13.9262 52.9515 13.107 52.6799 11.9476 52.8513 11.4686 52.1368L9.83023 49.693C9.08286 47.4628 9.36065 47.5767 8.19186 46.0272 8.07592 45.8735 8.26015 45.8913 7.78231 45.2124Z" stroke="#000000" stroke-width="1.33186" stroke-miterlimit="8" fill="#FFC000" fill-rule="evenodd" transform="matrix(1.00092 0 -0 1 1371.5 144.368)"/><path d="M0.0525636 12.4118C0.391325 11.3109 2.76846 10.8007 3.30365 10.3477 6.43392 7.69787 2.71368 10.3344 5.74189 8.28349 8.07141 4.73456 4.96965 8.91107 7.77377 6.6322 8.1552 6.32223 8.2052 5.70384 8.58663 5.39386 8.92113 5.12203 9.4227 5.1756 9.80583 4.98091 10.2426 4.75901 10.5786 4.3568 11.0249 4.15535 13.6257 2.98116 13.0204 3.60232 15.4952 2.91684 16.3217 2.68783 17.1207 2.36659 17.9336 2.09129 18.3399 1.95364 18.73 1.74993 19.1526 1.67833 19.9654 1.54068 20.7867 1.44707 21.591 1.26555 22.0091 1.17125 22.3982 0.972397 22.8102 0.852776 26.3762-0.182032 22.7365 1.01556 25.6548 0.0270447 27.4158 0.164696 29.3373-0.318816 30.9379 0.439997 31.7143 0.808048 31.4798 2.09129 31.7506 2.91684 31.8861 3.32962 32.073 3.72871 32.1569 4.15535L32.9698 8.28349C32.8343 12.1365 32.793 15.9942 32.5635 19.8425 32.5216 20.5429 32.3122 21.223 32.1569 21.9068 31.3908 25.2789 31.5025 24.7272 30.5314 27.6862 30.2636 28.502 30.0285 29.5812 29.3124 30.1632 28.9779 30.435 28.4995 30.4383 28.0932 30.576 27.3779 32.7559 27.9244 31.4525 26.0613 34.2913L25.2484 35.5298C24.9776 35.9426 24.7812 36.4175 24.4357 36.7684L23.2165 38.0067C22.33 40.7087 23.5613 38.0568 21.591 39.658 21.2096 39.968 21.1457 40.5697 20.7781 40.8965 19.0582 42.4254 18.7952 42.3937 17.1207 42.9606 16.7144 42.6854 16.2768 42.4526 15.9015 42.135 15.46 41.7612 15.1422 41.2469 14.6825 40.8965 14.0505 40.4151 13.3278 40.0708 12.6504 39.658 12.3796 39.2452 12.183 38.7704 11.8377 38.4196 11.3588 37.9332 10.6458 37.7097 10.2122 37.1811 9.93792 36.8469 10.0139 36.323 9.80583 35.9426 8.44345 33.4514 8.24548 34.0446 7.36743 31.8145 7.04932 31.0064 6.82575 30.1632 6.55474 29.3375L5.33554 25.6221C5.3352 25.6212 4.5232 23.1458 4.52268 23.1451L3.71 21.9068C2.68859 18.7938 4.06634 22.6309 2.4908 19.4297 2.29914 19.0405 2.2761 18.5804 2.08445 18.1912 1.86601 17.7474 1.52281 17.3783 1.27159 16.9529 1.11578 16.689-0.286198 13.5127 0.0525636 12.4118Z" stroke="#000000" stroke-width="1.33186" stroke-miterlimit="8" fill="#FFC000" fill-rule="evenodd" transform="matrix(1.00092 0 -0 1 1476.5 150.362)"/><path d="M0 158.661C0.190548 157.14 0.383489 154.96 0.813974 153.386 1.03973 152.56 1.62778 150.951 1.62778 150.951 1.76347 144.594 1.74945 138.232 2.03468 131.879 2.6916 117.252 2.37134 127.907 3.25555 121.735 4.03655 116.283 3.22223 119.838 4.06953 116.46 4.20522 115.107 4.39389 113.759 4.47643 112.402 4.68373 108.992 4.58256 103.703 5.29023 99.8224 5.36696 99.4017 5.59323 99.0202 5.69731 98.6052 6.68012 94.6855 5.58041 98.1429 6.51111 95.359 6.6468 94.5473 6.73908 93.7273 6.91801 92.9242 7.01115 92.5067 7.23194 92.1243 7.32508 91.7068 7.50401 90.9037 7.58433 90.0816 7.73198 89.2722 7.85571 88.5936 8.03378 87.9249 8.13889 87.2433 8.79615 82.9831 8.12248 85.2628 8.95286 82.7797 9.08855 81.968 9.25073 81.1604 9.35976 80.3449 9.96541 75.8148 9.32541 78.013 10.1736 75.4755 10.8146 69.7251 10.2043 73.7148 10.9875 70.2004 11.1376 69.5271 11.2124 68.8369 11.3944 68.1715 11.6202 67.3462 11.937 66.5484 12.2084 65.7367 12.3441 65.331 12.5112 64.9344 12.6153 64.5195 13.2304 62.0658 12.8452 63.4263 13.8362 60.4616 13.8362 60.4614 14.6498 58.0271 14.65 58.027L15.464 56.8096C16.4324 53.9121 15.8018 55.0866 17.0917 53.1576 18.0602 50.2601 17.4296 51.4346 18.7195 49.5054 19.688 46.6081 18.8195 47.5454 20.7542 46.2591 21.4704 44.1166 20.9232 45.3976 22.7889 42.6071L23.6029 41.3897C23.9337 40.3998 24.0349 39.7416 24.8236 38.9551 25.1694 38.6102 25.6375 38.4141 26.0444 38.1435 27.0131 35.2462 26.1446 36.1835 28.0791 34.8972 28.7957 32.7547 28.2481 34.0362 30.114 31.2452 30.3852 30.8395 30.7731 30.4905 30.9278 30.0278 31.0635 29.6221 31.0667 29.1446 31.3347 28.8106 31.6402 28.4298 32.1486 28.2696 32.5555 27.999 34.7263 24.7524 31.8773 28.6753 34.5902 25.9701 36.9414 23.6256 33.6252 25.8619 36.6251 23.5353 37.3972 22.9365 39.0667 21.9122 39.0667 21.9122 41.2377 18.6656 38.388 22.5892 41.1013 19.8833 43.8131 17.1791 39.882 20.0174 43.1362 17.8544 44.4926 15.8254 43.5431 16.9077 46.3917 15.0139L47.6124 14.2024C47.8838 13.7967 48.0583 13.3063 48.4264 12.985 49.1625 12.3428 50.868 11.3619 50.868 11.3619 51.1394 10.9562 51.3139 10.4657 51.682 10.1445 54.7929 7.4301 53.2345 9.3707 56.5653 7.70991 57.1079 7.43931 57.6298 7.12286 58.1931 6.89826 58.9896 6.58062 60.6347 6.08678 60.6347 6.08678 61.4486 5.54574 62.1484 4.77209 63.0764 4.46365L66.7389 3.24626C67.1458 3.11096 67.5325 2.8792 67.9597 2.84052L72.4362 2.43461C72.8431 2.29931 73.2407 2.13265 73.6569 2.02887 75.2433 1.63335 76.9329 1.44642 78.5402 1.21739 78.9471 1.08209 79.3449 0.915258 79.7611 0.81148L83.0166 0C85.4609 0.116047 92.7142 0.337918 96.0388 0.81148 96.4635 0.871975 96.8366 1.14701 97.2597 1.21739 98.4714 1.41881 99.7013 1.48783 100.922 1.62313 101.465 1.75843 102.014 1.86869 102.55 2.02887 103.372 2.27477 104.992 2.84052 104.992 2.84052 108.927 5.78346 104.734 2.91465 107.84 4.46365 111.922 6.499 105.701 3.95499 110.689 6.08678 111.506 6.43595 112.712 6.69241 113.537 6.89826 113.944 7.16887 114.321 7.49179 114.758 7.70991 115.409 8.0342 116.998 8.34809 117.607 8.52139 118.019 8.63897 118.421 8.79183 118.828 8.92713 120.099 9.77252 120.611 10.1408 122.083 10.9562 125.182 12.6725 122.373 10.8783 124.932 12.5793 125.203 12.985 125.378 13.4755 125.746 13.7965 126.482 14.4388 128.187 15.4197 128.187 15.4197 130.519 18.9081 127.415 14.8031 130.222 17.0428 130.604 17.3475 130.69 17.9153 131.036 18.2602 131.516 18.7383 132.121 19.0718 132.664 19.4776 134.531 22.2711 132.146 18.876 135.105 22.3181 135.424 22.6884 135.635 23.1384 135.919 23.5353 136.314 24.0856 136.781 24.585 137.14 25.1584 138.134 26.7446 137.649 26.6597 138.768 27.999 141.957 31.8146 137.501 25.4952 141.617 31.651L142.431 32.8684C143.675 36.5916 141.595 30.796 144.058 35.7089 144.309 36.2077 144.269 36.8099 144.465 37.332 144.678 37.8984 145.054 38.3935 145.279 38.9551 145.598 39.7494 145.822 40.5783 146.093 41.3897 146.229 41.7955 146.308 42.2246 146.5 42.6071 146.771 43.1482 147.075 43.6742 147.314 44.2303 147.483 44.6234 147.512 45.0738 147.721 45.4477 148.196 46.3002 148.806 47.0708 149.349 47.8823L150.162 49.0997 150.976 50.317C152.829 55.8592 150.808 50.1949 152.604 54.3748 153.06 55.4351 153.074 56.0717 153.418 57.2153 153.665 58.0348 153.961 58.8384 154.232 59.6501L155.046 62.0847C155.181 62.4904 155.369 62.8827 155.453 63.3021 155.588 63.9784 155.692 64.6619 155.86 65.331 155.964 65.7459 156.163 66.1334 156.267 66.5484 156.434 67.2174 156.492 67.9118 156.674 68.5772 156.899 69.4025 157.216 70.2004 157.487 71.012 157.623 71.4177 157.79 71.8143 157.894 72.2292 158.509 74.6829 158.124 73.3224 159.115 76.2871L159.522 77.5045 159.929 78.7217C160.065 79.6685 160.178 80.6189 160.336 81.5623 160.861 84.6996 161.121 84.116 161.557 88.4605 162.007 92.9441 161.533 91.2288 162.371 93.7358 162.507 94.6826 162.632 95.6309 162.778 96.5762 162.903 97.3894 163.133 98.1898 163.185 99.011 163.405 102.523 163.428 106.046 163.592 109.561 163.699 111.862 163.863 114.16 163.999 116.46 164.134 121.735 164.194 127.012 164.405 132.285 164.47 133.903 165.018 138.597 165.219 140.401 165.355 142.971 165.418 145.545 165.626 148.111 166.18 154.92 165.717 153.251 166.847 156.632 166.44 157.038 165.946 157.372 165.626 157.849 164.747 159.165 165.697 159.958 164.812 161.501 164.6 161.873 163.986 161.739 163.592 161.907 160.761 163.117 163.068 162.621 159.115 163.53 158.311 163.715 157.483 163.775 156.674 163.936 156.125 164.046 155.599 164.263 155.046 164.342 153.696 164.534 152.331 164.598 150.976 164.748 149.889 164.868 148.809 165.045 147.721 165.154 146.095 165.316 144.464 165.405 142.837 165.559 141.615 165.675 140.396 165.83 139.175 165.965 134.087 167.233 140.413 165.612 136.326 166.777 135.789 166.93 135.258 167.163 134.699 167.182 127.648 167.433 120.591 167.453 113.537 167.588 112.588 167.723 111.644 167.903 110.689 167.994 101.88 168.83 106.868 167.893 95.632 169.211 93.3259 169.482 91.0268 169.819 88.7139 170.023 86.4128 170.225 84.1025 170.304 81.7958 170.429 69.519 171.09 72.3622 170.864 55.7513 171.24 45.9395 174.503 54.2922 171.874 27.2653 171.24 24.8205 171.183 22.382 170.97 19.9402 170.834 13.7239 169.801 22.6798 171.208 11.3944 170.023 10.8382 169.965 10.3169 169.717 9.76666 169.617 8.82298 169.446 7.8675 169.347 6.91801 169.211 4.11892 168.281 7.51888 169.554 4.06953 167.588 3.69715 167.376 3.25555 167.318 2.84865 167.182 2.71296 166.777 2.65007 166.339 2.44175 165.965 1.61872 164.488 0 162.992 0 161.096L0 158.661Z" stroke="#000000" stroke-width="1.33186" stroke-miterlimit="8" fill="#FFF2CC" fill-rule="evenodd" transform="matrix(1.00092 0 -0 1 1357.5 144.368)"/><path d="M0 13.4876C-1.71716e-15 6.03862 6.03862-1.71716e-15 13.4876-3.43431e-15 20.9366-6.86862e-15 26.9753 6.03862 26.9753 13.4876 26.9753 20.9366 20.9366 26.9753 13.4876 26.9753 6.03862 26.9753-8.58578e-15 20.9366 0 13.4876Z" stroke="#000000" stroke-width="1.99779" stroke-miterlimit="8" fill="#BFBFBF" fill-rule="evenodd" transform="matrix(1.00092 0 -0 1 1396 180.834)"/><path d="M3.2697 5.09404C2.92917 4.60934 3.41559 1.80758 4.90455 2.18585 5.32248 2.29211 5.04426 3.09016 5.31339 3.43214 5.62028 3.8221 6.13073 3.98611 6.5394 4.26318 6.67568 4.81714 6.94824 5.35401 6.94824 5.92507 6.94824 6.36301 6.97021 7.17153 6.5394 7.17153 6.04817 7.17153 5.99445 6.3405 5.72206 5.92507 5.58578 5.3711 5.47473 4.81016 5.31339 4.26318 5.06571 3.42411 4.49588 1.77025 4.49588 1.77025 4.3596 4.26318 4.30004 6.76151 4.08721 9.24886 4.02696 9.95235 4.16977 10.8268 3.67854 11.3262 3.37388 11.6359 3.40598 10.4952 3.2697 10.0797 2.86103 10.3568 2.47021 11.1585 2.04369 10.9108 1.19065 10.4152-0.544263 8.17548 0.408841 8.41782L2.04369 8.83343C2.88935 10.1228 3.46245 10.3603 2.45236 12.1572 2.20863 12.5908 1.63485 12.7112 1.22618 12.9881 0.873293 9.40031-0.359238 9.22373 2.04369 8.00239 2.42902 7.80663 2.86103 7.7255 3.2697 7.58696 4.29764 4.45318 2.91098 8.31645 4.49588 5.09404 4.68846 4.70233 4.76827 4.26318 4.90455 3.84774L6.13073 7.58696 6.5394 8.83343C6.40312 9.24886 6.3233 9.68802 6.13073 10.0797 5.91103 10.5264 4.82216 11.3262 5.31339 11.3262 5.8374 11.3262 7.11043 9.20925 7.35691 8.83343 7.49319 8.00239 7.85706 7.17782 7.76558 6.3405 7.71134 5.84429 7.14768 5.55029 6.94824 5.09404 6.59827 4.29371 6.40329 3.43214 6.13073 2.60128 5.99445 2.18585 6.13073 1.49335 5.72206 1.35482L4.49588 0.939385C4.08721 0.662315 3.51342-0.325225 3.2697 0.10835 2.65764 1.19726 3.0639 2.6107 2.86103 3.84774 2.79014 4.27975 2.75702 4.78434 2.45236 5.09404 1.75757 5.80014 0 6.75593 0 6.75593 0.408669 7.033 0.919291 7.19701 1.22618 7.58696 1.49531 7.92894 1.55778 8.40247 1.63485 8.83343 1.83137 9.93194 1.90741 11.0493 2.04369 12.1572 5.61804 8.52373 3.85121 9.32912 6.5394 8.41782 6.77299 8.06172 7.80471 6.14264 8.58309 6.3405 9.00102 6.44676 8.85548 7.17153 8.99176 7.58696L6.5394 9.24886 5.31339 10.0797C5.04083 10.4952 4.87949 11.0142 4.49588 11.3262 4.15947 11.5998 3.65502 11.5457 3.2697 11.7416 2.83031 11.9649 2.45236 12.2956 2.04369 12.5726 2.17997 11.6033 2.26339 10.6246 2.45236 9.66429 2.53681 9.2349 2.7426 8.83901 2.86103 8.41782 3.88553 4.77212 2.69986 8.4932 3.67854 5.50964 4.76844 5.64817 5.84993 5.92507 6.94824 5.92507 7.37905 5.92507 5.72206 5.94758 5.72206 5.50964 5.72206 5.0717 6.53957 5.23257 6.94824 5.09404 8.30349 5.55343 3.61023 5.57873 3.2697 5.09404Z" stroke="#FF0000" stroke-width="1.33186" stroke-miterlimit="8" fill="#4472C4" fill-rule="evenodd" transform="matrix(1.00092 0 -0 1 1428.5 233.286)"/><path d="M0 5.06799C-1.21555e-15 2.26902 4.27467 -6.45222e-16 9.54774-1.29044e-15 14.8208-2.58089e-15 19.0955 2.26902 19.0955 5.06799 19.0955 7.86696 14.8208 10.136 9.54774 10.136 4.27467 10.136-6.07777e-15 7.86696 0 5.06799Z" fill-rule="evenodd" transform="matrix(0.985318 -0.175694 0.175543 0.984472 1421.16 219.792)"/><path d="M14.9863 0C14.9344 0.949833 15.1505 7.38234 13.8354 9.50857 12.6196 11.474 13.5057 10.5917 10.7665 11.5756L9.61583 11.989C7.442 11.8511 5.24787 11.9237 3.09434 11.5756 1.6965 11.3497 2.01112 10.4811 1.55989 9.50857 1.35369 9.06413 0.979948 8.72228 0.792754 8.26829-0.217158 5.81931 0.0254532 5.88528 0.0254532 3.30731" stroke="#000000" stroke-width="1.33186" stroke-miterlimit="8" fill="none" fill-rule="evenodd" transform="matrix(1.00092 0 -0 1 1415.5 228.291)"/><path d="M0 0C0.6906 1.0657 1.37215 2.13693 2.07163 3.19709 2.60632 4.00752 3.17652 4.79563 3.72896 5.59482 4.00527 5.99442 4.14343 6.52727 4.55772 6.79377L7.04363 8.39232C7.45792 8.65866 7.81427 9.03962 8.28668 9.19151L10.7726 9.99086C12.0156 9.85761 13.2754 9.8279 14.5017 9.59127 15.3583 9.42596 16.9876 8.79191 16.9876 8.79191 19.1978 5.59449 16.297 9.45801 19.0593 6.79377 21.821 4.13004 17.8171 6.92636 21.1311 4.79563 21.4594 3.8454 21.7863 3.00157 21.9597 1.99814 22.0051 1.73532 21.9597 1.46529 21.9597 1.19878" stroke="#000000" stroke-width="1.33186" stroke-miterlimit="8" fill="none" fill-rule="evenodd" transform="matrix(1.00092 0 -0 1 1430.5 229.29)"/><path d="M0.374613 0C0.874149 0.63971 1.49027 1.19996 1.87322 1.91913 2.58547 3.2569 2.75917 5.06208 2.99722 6.52476 2.23525 10.4264 3.41856 7.25392 1.49861 8.82749-0.166145 10.1918 1.6303 9.97894 0 9.97894" stroke="#000000" stroke-width="1.33186" stroke-miterlimit="8" fill="none" fill-rule="evenodd" transform="matrix(1.00092 0 -0 1 1425.5 240.28)"/><path d="M8.99176 0C8.84937 0.80375 8.62658 2.51509 8.24252 3.3815 8.04113 3.83592 7.84478 4.33223 7.49313 4.64961 7.18475 4.92794 6.7439 4.93131 6.36928 5.07225 6.11943 5.4949 5.95879 6.00576 5.61989 6.34036 4.94224 7.00938 3.37203 8.03111 3.37203 8.03111 3.12218 8.45376 2.97428 8.98184 2.62263 9.29922 2.31426 9.57755 1.85185 9.52252 1.49863 9.72186 0.652001 10.1994 0.526761 10.3959 0 10.99" stroke="#000000" stroke-width="1.33186" stroke-miterlimit="8" fill="none" fill-rule="evenodd" transform="matrix(1.00092 0 -0 1 1428.5 238.282)"/><path d="M3.36531 0.383267C2.52407 1.44697 1.39682 5.69992 0.420796 8.36101 0.275054 8.75818 0 9.55771 0 9.55771 0.140265 12.4828 0.174537 15.4143 0.420796 18.3331 0.456127 18.7523 0.643206 19.1538 0.841415 19.5298 1.06754 19.9587 1.45653 20.2977 1.68265 20.7265 1.88104 21.1026 1.82645 21.5949 2.10345 21.9232 2.69649 22.6263 3.796 22.8571 4.62734 23.1198 5.04796 23.3858 5.48483 24.2053 5.88938 23.9176 6.46139 23.5109 6.12186 22.5774 6.30999 21.9232 6.54336 21.112 7.15141 19.5298 7.15141 19.5298 7.29167 17.6685 7.34202 15.7989 7.57203 13.9455 7.62379 13.5279 7.99265 13.1693 7.99265 12.7488 7.99265 11.0608 7.74462 7.63099 7.15141 5.56876 6.83926 4.48328 6.40892 2.87031 5.46876 1.97881 4.08995 0.671386 4.20655-0.680432 3.36531 0.383267Z" stroke="#000000" stroke-width="1.33186" stroke-miterlimit="8" fill="#FFFF00" fill-rule="evenodd" transform="matrix(1.00092 0 -0 1 1406.5 183.332)"/><path d="M0 13.4876C-1.71716e-15 6.03862 6.03862-1.71716e-15 13.4876-3.43431e-15 20.9366-6.86862e-15 26.9753 6.03862 26.9753 13.4876 26.9753 20.9366 20.9366 26.9753 13.4876 26.9753 6.03862 26.9753-8.58578e-15 20.9366 0 13.4876Z" stroke="#000000" stroke-width="1.99779" stroke-miterlimit="8" fill="#BFBFBF" fill-rule="evenodd" transform="matrix(1.00092 0 -0 1 1443 180.834)"/><path d="M2.04177 0.0174851C1.84334-0.178974 1.49163 1.3188 1.24822 1.98142 0.962323 2.75967 0.454838 4.33827 0.454838 4.33827-0.00499822 9.79938-0.282732 10.5791 0.454838 16.9077 0.550637 17.7303 0.784387 18.5754 1.24822 19.2644 3.36413 22.4069 2.0416 21.0975 5.21564 23.1924L6.40571 23.9779C6.67029 23.5852 6.98601 23.222 7.19926 22.7997 7.81071 21.5889 7.85603 19.5612 7.99265 18.4789 7.86036 17.0387 8.00814 15.5455 7.59596 14.1581 7.32689 13.2523 6.538 12.5869 6.00902 11.8014 5.74462 11.4087 5.36642 11.0708 5.21564 10.623 4.95107 9.83732 4.88609 8.95515 4.42209 8.26614 4.15768 7.87339 3.8223 7.51923 3.62871 7.08788 3.45127 6.69249 2.52393 3.92193 2.43846 3.15985 2.36549 2.50927 2.2402 0.213944 2.04177 0.0174851Z" stroke="#000000" stroke-width="1.33186" stroke-miterlimit="8" fill="#FFFF00" fill-rule="evenodd" transform="matrix(1.00092 0 -0 1 1452.5 183.332)"/><path d="M3.90028 15.9447C3.34309 16.2991 2.30191 14.2493 1.67155 13.2873 1.36023 12.8122 1.27564 12.2315 1.11436 11.6928-0.284821 7.0212 1.33601 11.7954 0 7.97236 0.185669 6.90938-0.14864 5.62493 0.557182 4.78342 0.924133 4.346 1.70349 5.06431 2.22873 5.31491 2.82768 5.60066 3.34309 6.02351 3.90028 6.37789 4.27179 6.90938 4.71508 7.40103 5.01464 7.97236 5.27735 8.47339 5.24611 9.10063 5.57182 9.56683 6.00897 10.1922 6.68619 10.6298 7.24337 11.1613 7.0577 11.6928 6.46805 12.2357 6.68619 12.7558 7.47572 14.6385 10.063 13.4935 11.1436 13.2873 11.3293 9.92122 11.3948 6.54696 11.7008 3.18894 11.7672 2.46126 11.8331 1.67081 12.258 1.06298 12.6295 0.531491 13.3724 0.354383 13.9296 0 16.8034 4.11198 18.1315 4.60999 15.6011 11.1613 14.9962 12.7273 10.2699 13.9194 8.91492 14.3503 8.35773 14.5274 10.0028 13.8807 10.5865 13.8188L15.6011 13.2873C16.8789 9.63061 15.4554 14.0516 16.7155 7.44087 16.8206 6.88963 17.1114 6.38509 17.2727 5.8464 17.6693 4.52244 17.6875 3.08499 18.9442 2.12596 19.4028 1.77593 20.0586 1.77158 20.6157 1.59447 21.1729 1.77158 21.946 1.67014 22.2873 2.12596 22.9701 3.03778 23.4017 5.31491 23.4017 5.31491 22.5597 8.52796 23.0867 6.74784 21.7301 10.6298 21.5444 11.1613 21.0304 12.7678 21.1729 12.2243 21.304 11.7239 21.924 9.12775 22.2873 8.50385 22.9377 7.38714 24.0926 6.52687 24.516 5.31491L25.6304 2.12596C26.3732 2.30307 27.3607 2.10286 27.8591 2.65745 28.6236 3.50817 28.9735 5.8464 28.9735 5.8464 28.659 7.94641 28.4023 10.1519 27.8591 12.2243 27.7166 12.7678 27.5646 13.3177 27.3019 13.8188 27.0024 14.3901 26.5591 14.8817 26.1876 15.4132 24.3014 15.1884 20.2191 14.9839 18.387 13.8188 17.8298 13.4644 17.3274 13.0152 16.7155 12.7558L11.7008 11.1613 10.0293 10.6298C8.35773 10.8069 6.64618 10.7723 5.01464 11.1613 4.36497 11.3161 4.45746 15.5903 3.90028 15.9447Z" stroke="#000000" stroke-width="1.33186" stroke-miterlimit="8" fill="#FFF2CC" fill-rule="evenodd" transform="matrix(1.00092 0 -0 1 1324.5 194.322)"/><path d="M25.5463 107.849C28.1561 106.223 24.8999 106.01 24.4664 105.139 24.1761 104.557 23.6083 104.126 23.3865 103.514 22.8794 102.114 22.5978 100.639 22.3066 99.178 21.6211 95.7378 21.9893 97.3618 21.2267 94.3004 21.0468 91.952 20.9779 89.5921 20.6867 87.2549 20.6162 86.6881 20.1468 86.2004 20.1468 85.6291 20.1468 81.2514 20.1612 67.1007 21.2267 59.6152 21.3316 58.8778 21.6447 58.182 21.7666 57.4474 22.0052 56.0108 22.068 54.5483 22.3066 53.1117 22.5326 51.7508 22.9586 50.6066 23.3865 49.318 23.4783 48.6726 24.236 43.1402 24.4664 42.2726 24.9064 40.6167 25.5463 39.0208 26.0863 37.395L27.1662 34.1432C27.3461 33.6013 27.568 33.0716 27.7061 32.5174 27.8861 31.7948 28.0328 31.0631 28.2461 30.3495 28.7367 28.708 29.326 27.0978 29.8659 25.4719L32.5657 17.3426C34.5349 11.413 31.3943 20.3945 34.1856 14.0909 34.6478 13.0467 34.9054 11.923 35.2655 10.8391L36.3454 7.58739 37.4253 4.33565 37.9652 2.70978C37.4253 2.52919 36.8544 2.42335 36.3454 2.16782 35.7649 1.87645 35.3354 1.3065 34.7255 1.08391 33.3307 0.5749 30.4059 0 30.4059 0 28.966 0.180595 27.5051 0.236754 26.0863 0.541956 24.9732 0.78127 22.8466 1.62587 22.8466 1.62587 21.6685 5.17325 23.3047 1.69159 20.6867 3.79369 20.18 4.20063 20.1572 5.07442 19.6068 5.41956 18.6416 6.02519 16.3671 6.50347 16.3671 6.50347L12.0475 13.0069 10.9676 14.6328C10.6076 15.1748 10.093 15.6408 9.88769 16.2587L7.72787 22.7622C7.54795 23.3041 7.50356 23.9126 7.18792 24.388L6.10802 26.0139C5.92809 27.0978 5.80564 28.193 5.56806 29.2656 5.4446 29.8233 5.12998 30.3294 5.02811 30.8915 4.76859 32.3245 4.72676 33.7906 4.48816 35.2272 4.26214 36.5881 3.83613 37.7323 3.40825 39.0208 3.22832 40.2854 3.09601 41.5577 2.8683 42.8145 2.73548 43.5473 2.44127 44.2462 2.32834 44.9824 1.0845 53.097 2.46678 47.136 1.24844 52.0278 0.514273 63.0801 0.168533 66.6722 0.168533 80.2095 0.168533 90.3276-0.459683 100.509 0.708486 110.559 0.858823 111.853 2.8683 112.004 3.9482 112.727 4.48816 113.088 4.95243 113.605 5.56806 113.811L8.80778 114.895C23.7887 114.338 22.9365 109.475 25.5463 107.849Z" stroke="#000000" stroke-width="1.33186" stroke-miterlimit="8" fill="#FFF2CC" fill-rule="evenodd" transform="matrix(1.00092 0 -0 1 1313.5 202.315)"/><path d="M13.8762 0C9.95345 0.800273 11.996 0.261765 7.77067 1.69844 7.21562 1.8871 6.5924 1.93364 6.10553 2.26459L2.77524 4.52917C0.230585 8.42266 0.976884 6.63506 0 9.6245 0.464317 14.3609-0.935627 14.8088 2.22019 16.4183 2.74342 16.6852 3.33029 16.7957 3.88534 16.9844 7.80808 16.1841 5.76551 16.7226 9.99086 15.286L11.656 14.7198 13.8762 11.3229 14.9863 9.6245 13.8762 0Z" stroke="#000000" stroke-width="1.33186" stroke-miterlimit="8" fill="#C55A11" fill-rule="evenodd" transform="matrix(1.00092 0 -0 1 1327.5 209.308)"/><path d="M0 11.9892C-2.27364e-15 5.36775 5.36775-2.27365e-15 11.9892-4.54729e-15L23.8115 0 23.8115 0 59.5288 0 130.88 0C137.501-2.27365e-15 142.869 5.36775 142.869 11.9892L142.869 41.9616 142.869 41.9616 142.869 59.9451 142.869 59.9449C142.869 66.5664 137.501 71.9342 130.88 71.9342L59.5288 71.9342 41.1307 96.5564 23.8115 71.9342 11.9892 71.9342C5.36775 71.9342 0 66.5664 0 59.9449L0 59.9451 0 41.9616 0 41.9616Z" stroke="#000000" stroke-width="1.33186" stroke-miterlimit="8" fill="#FBFBFB" fill-rule="evenodd" transform="matrix(1.00092 0 -0 1 1396.5 28.4739)"/><text font-family="GulimChe,GulimChe_MSFontService,sans-serif" font-weight="400" font-size="43" transform="matrix(1 0 0 0.999085 1425.17 82)">여어</text><path d="M0 37.9877C-1.07986e-14 17.0077 37.9747-4.83634e-15 84.8189-9.67269e-15 131.663-1.93454e-14 169.638 17.0077 169.638 37.9877 169.638 58.9678 131.663 75.9754 84.8189 75.9754 37.9747 75.9754-5.39929e-14 58.9678 0 37.9877Z" fill="#C00000" fill-rule="evenodd" transform="matrix(0.98733 0.16405 -0.163908 0.986476 1592.65 2.60722)"/><text fill="#FBFBFB" font-family="Malgun Gothic,Malgun Gothic_MSFontService,sans-serif" font-weight="400" font-size="36" transform="matrix(0.986451 0.163754 -0.164205 0.985549 1619.39 60)">즐겁다</text><path d="M7.81973 44.9862C7.3396 44.3107 5.65256 42.4387 5.35027 41.744 5.12749 41.232 5.16154 40.6348 4.93875 40.1229 4.74397 39.6751 4.33694 39.3427 4.11571 38.907 3.78612 38.258 3.46879 36.6776 3.2925 36.0701 3.17324 35.6593 3.01821 35.2595 2.88098 34.8542 2.74375 33.6384 2.67375 32.4135 2.46946 31.2068 2.39808 30.7854 2.10841 30.4152 2.05777 29.9909 1.83274 28.1076 1.88511 26.1984 1.64625 24.3169 1.47272 22.9498 1.02111 21.6279 0.823212 20.2641 0.331497 16.8757 0.646747 18.3538 0 15.806 0.137231 12.1585 0.18718 8.50677 0.411519 4.86337 0.461987 4.04319 0.620822 3.22897 0.823212 2.43177 1.03372 1.60291 1.64625 0 1.64625 0 2.33223 0.135136 3.0291 0.224149 3.70402 0.405409 4.54106 0.630238 5.33178 1.00876 6.17348 1.21589L7.81973 1.62112C9.26843 2.57218 10.3538 3.42997 11.9353 4.05289 12.7409 4.37014 13.5815 4.5931 14.4047 4.86337 14.8163 4.99851 15.2784 5.03187 15.6395 5.26878L19.3435 7.70038C19.755 7.97065 20.109 8.357 20.5782 8.51103 20.9897 8.64616 21.4336 8.7088 21.8128 8.91627 26.0579 11.2386 22.7233 10.0258 25.517 10.9426 26.8888 12.9692 25.9285 11.8882 28.8095 13.7796L30.044 14.5901 31.2788 15.4008C32.3761 18.6432 30.73 14.8604 32.925 17.0219 35.12 19.1834 31.2786 17.5624 34.5713 18.643 34.8457 19.0482 35.0222 19.5381 35.3945 19.8589 36.1389 20.5004 37.8638 21.48 37.8638 21.48 38.8982 24.5361 37.5025 20.7686 39.0985 23.9116 40.8025 27.2676 37.974 22.8588 40.3332 26.3434 40.6075 27.1539 41.2104 27.9223 41.1563 28.775 41.019 30.9365 40.975 33.1056 40.7447 35.2595 40.6993 35.6843 40.5439 36.102 40.3332 36.4754 39.8527 37.3269 39.51 38.3666 38.687 38.907L37.4522 39.7176C36.7279 41.8577 37.4016 40.6966 34.5713 42.5546L32.102 44.1757C31.6905 44.446 31.3365 44.8322 30.8672 44.9862L29.6325 45.3915C27.3729 47.6166 28.7224 46.7711 25.517 47.8232L24.2822 48.2285C24.0078 48.6337 23.8785 49.1862 23.459 49.4444 22.7233 49.8973 21.8128 49.9847 20.9897 50.2548 20.5782 50.39 20.1161 50.4233 19.755 50.6602 19.3435 50.9303 18.9627 51.2529 18.5203 51.4707 17.5797 51.9338 16.1666 52.0502 15.2278 52.2814 14.8069 52.385 14.4047 52.5515 13.9932 52.6866 13.17 52.4163 12.0051 52.5869 11.5238 51.876L9.8775 49.4444C9.12654 47.2253 9.40566 47.3387 8.23125 45.7969 8.11476 45.644 8.29987 45.6617 7.81973 44.9862Z" stroke="#000000" stroke-width="1.33191" stroke-miterlimit="8" fill="#7F6000" fill-rule="evenodd" transform="matrix(0.983541 0.185345 -0.185187 0.982703 1577.49 126.495)"/><path d="M0.0656298 12.1868C0.488601 11.1059 3.45664 10.6049 4.12487 10.1602 8.03325 7.55832 3.38824 10.147 7.1692 8.13333 10.0778 4.64874 6.205 8.74953 9.70617 6.51198 10.1824 6.20762 10.2448 5.60044 10.7211 5.29609 11.1387 5.02918 11.765 5.08178 12.2434 4.89062 12.7886 4.67274 13.2082 4.27782 13.7654 4.08003 17.0128 2.92712 16.257 3.53702 19.3469 2.86397 20.3789 2.63911 21.3766 2.32369 22.3915 2.05338 22.8988 1.91822 23.3859 1.71821 23.9135 1.64791 24.9284 1.51275 25.9538 1.42083 26.9581 1.24261 27.4801 1.15001 27.966 0.95477 28.4803 0.837317 32.9327-0.178732 28.3883 0.997155 32.032 0.0265545 34.2308 0.16171 36.6299-0.313036 38.6284 0.432021 39.5978 0.7934 39.305 2.05338 39.6431 2.86397 39.8123 3.26926 40.0457 3.66111 40.1505 4.08003L41.1654 8.13333C40.9962 11.9165 40.9447 15.7043 40.6581 19.4828 40.6059 20.1705 40.3444 20.8383 40.1505 21.5096 39.194 24.8206 39.3333 24.279 38.1209 27.1843 37.7865 27.9854 37.4929 29.045 36.5988 29.6164 36.1812 29.8833 35.5839 29.8866 35.0765 30.0217 34.1835 32.1621 34.8658 30.8824 32.5396 33.6697L31.5247 34.8858C31.1865 35.2911 30.9412 35.7573 30.51 36.1018L28.9877 37.3177C27.8807 39.9708 29.4181 37.3669 26.9581 38.9391 26.4818 39.2434 26.4021 39.8343 25.9431 40.1551 23.7957 41.6563 23.4673 41.6252 21.3766 42.1818 20.8692 41.9117 20.3229 41.683 19.8543 41.3712 19.303 41.0042 18.9063 40.4992 18.3322 40.1551 17.5432 39.6824 16.6408 39.3444 15.795 38.9391 15.4569 38.5338 15.2114 38.0676 14.7803 37.7232 14.1824 37.2456 13.2922 37.0261 12.7507 36.5071 12.4083 36.1789 12.5031 35.6645 12.2434 35.2911 10.5423 32.845 10.2951 33.4275 9.19882 31.2378 8.80163 30.4444 8.52249 29.6164 8.18412 28.8057L6.66185 25.1576C6.66142 25.1568 5.64757 22.7262 5.64693 22.7255L4.63223 21.5096C3.35692 18.4532 5.07714 22.2207 3.10996 19.0775 2.87066 18.6954 2.8419 18.2436 2.6026 17.8615 2.32986 17.4257 1.90135 17.0633 1.58769 16.6456 1.39314 16.3865-0.357341 13.2677 0.0656298 12.1868Z" stroke="#000000" stroke-width="1.3321" stroke-miterlimit="8" fill="#7F6000" fill-rule="evenodd" transform="matrix(0.900616 -0.435921 0.435673 0.900105 1658.6 144.575)"/><path d="M0 158.661C0.19283 157.14 0.388081 154.96 0.823722 153.386 1.05218 152.56 1.64727 150.951 1.64727 150.951 1.78459 144.594 1.77041 138.232 2.05905 131.879 2.72383 117.252 2.39974 127.907 3.29454 121.735 4.08489 116.283 3.26082 119.838 4.11826 116.46 4.25558 115.107 4.44651 113.759 4.53004 112.402 4.73982 108.992 4.63743 103.703 5.35359 99.8224 5.43124 99.4017 5.66021 99.0202 5.76553 98.6052 6.76012 94.6855 5.64724 98.1429 6.58908 95.359 6.7264 94.5473 6.81979 93.7273 7.00086 92.9242 7.09511 92.5067 7.31855 92.1243 7.41281 91.7068 7.59388 90.9037 7.67516 90.0816 7.82458 89.2722 7.94979 88.5936 8.13 87.9249 8.23635 87.2433 8.90149 82.9831 8.21975 85.2628 9.06008 82.7797 9.19739 81.968 9.36151 81.1604 9.47185 80.3449 10.0848 75.8148 9.43709 78.013 10.2954 75.4755 10.9441 69.7251 10.3265 73.7148 11.1191 70.2004 11.271 69.5271 11.3467 68.8369 11.5309 68.1715 11.7594 67.3462 12.08 66.5484 12.3546 65.7367 12.4919 65.331 12.6611 64.9344 12.7664 64.5195 13.3888 62.0658 12.999 63.4263 14.0019 60.4616 14.0019 60.4614 14.8253 58.0271 14.8254 58.027L15.6492 56.8096C16.6292 53.9121 15.9911 55.0866 17.2964 53.1576 18.2765 50.2601 17.6383 51.4346 18.9437 49.5054 19.9238 46.6081 19.0449 47.5454 21.0027 46.2591 21.7275 44.1166 21.1738 45.3976 23.0618 42.6071L23.8855 41.3897C24.2203 40.3998 24.3227 39.7416 25.1208 38.9551 25.4709 38.6102 25.9446 38.4141 26.3563 38.1435 27.3366 35.2462 26.4577 36.1835 28.4154 34.8972 29.1405 32.7547 28.5864 34.0362 30.4746 31.2452 30.7491 30.8395 31.1416 30.4905 31.2981 30.0278 31.4355 29.6221 31.4387 29.1446 31.7099 28.8106 32.0191 28.4298 32.5336 28.2696 32.9454 27.999 35.1421 24.7524 32.259 28.6753 35.0045 25.9701 37.3838 23.6256 34.0279 25.8619 37.0637 23.5353 37.845 22.9365 39.5345 21.9122 39.5345 21.9122 41.7316 18.6656 38.8477 22.5892 41.5935 19.8833 44.3378 17.1791 40.3596 20.0174 43.6528 17.8544 45.0254 15.8254 44.0645 16.9077 46.9473 15.0139L48.1826 14.2024C48.4573 13.7967 48.6338 13.3063 49.0064 12.985 49.7512 12.3428 51.4772 11.3619 51.4772 11.3619 51.7518 10.9562 51.9284 10.4657 52.3009 10.1445 55.4491 7.4301 53.8721 9.3707 57.2427 7.70991 57.7918 7.43931 58.32 7.12286 58.89 6.89826 59.6961 6.58062 61.3608 6.08678 61.3608 6.08678 62.1845 5.54574 62.8927 4.77209 63.8318 4.46365L67.5381 3.24626C67.9499 3.11096 68.3412 2.8792 68.7736 2.84052L73.3036 2.43461C73.7154 2.29931 74.1178 2.13265 74.539 2.02887 76.1444 1.63335 77.8543 1.44642 79.4808 1.21739 79.8925 1.08209 80.2952 0.915258 80.7163 0.81148L84.0108 0C86.4844 0.116047 93.8246 0.337918 97.189 0.81148 97.6187 0.871975 97.9963 1.14701 98.4245 1.21739 99.6506 1.41881 100.895 1.48783 102.131 1.62313 102.68 1.75843 103.236 1.86869 103.778 2.02887 104.61 2.27477 106.249 2.84052 106.249 2.84052 110.232 5.78346 105.988 2.91465 109.132 4.46365 113.263 6.499 106.966 3.95499 112.014 6.08678 112.841 6.43595 114.062 6.69241 114.897 6.89826 115.309 7.16887 115.69 7.49179 116.133 7.70991 116.791 8.0342 118.4 8.34809 119.015 8.52139 119.433 8.63897 119.839 8.79183 120.251 8.92713 121.538 9.77252 122.056 10.1408 123.545 10.9562 126.681 12.6725 123.839 10.8783 126.428 12.5793 126.703 12.985 126.879 13.4755 127.252 13.7965 127.997 14.4388 129.723 15.4197 129.723 15.4197 132.082 18.9081 128.94 14.8031 131.782 17.0428 132.168 17.3475 132.255 17.9153 132.605 18.2602 133.091 18.7383 133.704 19.0718 134.253 19.4776 136.142 22.2711 133.729 18.876 136.723 22.3181 137.046 22.6884 137.26 23.1384 137.547 23.5353 137.946 24.0856 138.419 24.585 138.783 25.1584 139.789 26.7446 139.297 26.6597 140.43 27.999 143.657 31.8146 139.147 25.4952 143.313 31.651L144.136 32.8684C145.396 36.5916 143.291 30.796 145.784 35.7089 146.037 36.2077 145.997 36.8099 146.195 37.332 146.411 37.8984 146.791 38.3935 147.019 38.9551 147.341 39.7494 147.568 40.5783 147.843 41.3897 147.98 41.7955 148.06 42.2246 148.254 42.6071 148.529 43.1482 148.836 43.6742 149.078 44.2303 149.249 44.6234 149.279 45.0738 149.49 45.4477 149.971 46.3002 150.588 47.0708 151.137 47.8823L151.961 49.0997 152.784 50.317C154.659 55.8592 152.614 50.1949 154.432 54.3748 154.893 55.4351 154.907 56.0717 155.255 57.2153 155.505 58.0348 155.804 58.8384 156.079 59.6501L156.903 62.0847C157.04 62.4904 157.229 62.8827 157.314 63.3021 157.452 63.9784 157.556 64.6619 157.726 65.331 157.832 65.7459 158.033 66.1334 158.138 66.5484 158.308 67.2174 158.366 67.9118 158.55 68.5772 158.778 69.4025 159.099 70.2004 159.373 71.012 159.511 71.4177 159.68 71.8143 159.785 72.2292 160.408 74.6829 160.018 73.3224 161.021 76.2871L161.433 77.5045 161.844 78.7217C161.982 79.6685 162.097 80.6189 162.256 81.5623 162.787 84.6996 163.051 84.116 163.492 88.4605 163.947 92.9441 163.467 91.2288 164.315 93.7358 164.453 94.6826 164.58 95.6309 164.727 96.5762 164.854 97.3894 165.087 98.1898 165.139 99.011 165.362 102.523 165.385 106.046 165.551 109.561 165.659 111.862 165.825 114.16 165.963 116.46 166.1 121.735 166.16 127.012 166.374 132.285 166.44 133.903 166.995 138.597 167.198 140.401 167.335 142.971 167.399 145.545 167.61 148.111 168.17 154.92 167.701 153.251 168.845 156.632 168.434 157.038 167.933 157.372 167.61 157.849 166.72 159.165 167.681 159.958 166.786 161.501 166.571 161.873 165.95 161.739 165.551 161.907 162.686 163.117 165.021 162.621 161.021 163.53 160.207 163.715 159.369 163.775 158.55 163.936 157.995 164.046 157.463 164.263 156.903 164.342 155.537 164.534 154.156 164.598 152.784 164.748 151.684 164.868 150.591 165.045 149.49 165.154 147.845 165.316 146.194 165.405 144.548 165.559 143.311 165.675 142.077 165.83 140.842 165.965 135.692 167.233 142.095 165.612 137.959 166.777 137.415 166.93 136.877 167.163 136.312 167.182 129.177 167.433 122.035 167.453 114.897 167.588 113.936 167.723 112.981 167.903 112.014 167.994 103.1 168.83 108.148 167.893 96.7772 169.211 94.4435 169.482 92.1169 169.819 89.7763 170.023 87.4477 170.225 85.1097 170.304 82.7753 170.429 70.3515 171.09 73.2288 170.864 56.419 171.24 46.4897 174.503 54.9424 171.874 27.5918 171.24 25.1177 171.183 22.65 170.97 20.179 170.834 13.8883 169.801 22.9515 171.208 11.5309 170.023 10.968 169.965 10.4405 169.717 9.88363 169.617 8.92864 169.446 7.96172 169.347 7.00086 169.211 4.16824 168.281 7.60892 169.554 4.11826 167.588 3.74142 167.376 3.29454 167.318 2.88277 167.182 2.74545 166.777 2.68181 166.339 2.47099 165.965 1.6381 164.488 0 162.992 0 161.096L0 158.661Z" stroke="#000000" stroke-width="1.33186" stroke-miterlimit="8" fill="#7F6000" fill-rule="evenodd" transform="matrix(1.00092 0 -0 1 1555.5 144.368)"/><path d="M0 12.9881C-1.71716e-15 5.81498 6.03864-1.65356e-15 13.4877-3.30712e-15 20.9367-6.61425e-15 26.9754 5.81498 26.9754 12.9881 26.9754 20.1613 20.9367 25.9763 13.4877 25.9763 6.03864 25.9763-8.58581e-15 20.1613 0 12.9881Z" stroke="#000000" stroke-width="1.99779" stroke-miterlimit="8" fill="#F2F2F2" fill-rule="evenodd" transform="matrix(1.00092 0 -0 1 1595 181.833)"/><path d="M0 5.06609C-1.23392e-15 2.26817 4.33925 -6.44981e-16 9.69198-1.28996e-15 15.0447-2.57992e-15 19.384 2.26817 19.384 5.06609 19.384 7.86402 15.0447 10.1322 9.69198 10.1322 4.33925 10.1322-6.16959e-15 7.86402 0 5.06609Z" fill-rule="evenodd" transform="matrix(0.991832 0.1343 -0.134181 0.990957 1621.72 216.816)"/><path d="M15.9853 0C15.93 1.42475 16.1604 11.0735 14.7577 14.2629 13.4609 17.2111 14.406 15.8877 11.4842 17.3635L10.2568 17.9835C7.93809 17.7767 5.5977 17.8856 3.30061 17.3635 1.80959 17.0246 2.14519 15.7218 1.66388 14.2629 1.44393 13.5962 1.04527 13.0835 0.8456 12.4025-0.231634 8.72899 0.0271499 8.82795 0.0271499 4.96099" stroke="#000000" stroke-width="1.33186" stroke-miterlimit="8" fill="none" fill-rule="evenodd" transform="matrix(1.00092 0 -0 1 1614.5 228.291)"/><path d="M0 0C0.56504 2.13139 1.12268 4.27386 1.69498 6.39418 2.13246 8.01504 2.59898 9.59127 3.05099 11.1896 3.27706 11.9888 3.3901 13.0545 3.72906 13.5875L5.76301 16.7846C6.10198 17.3173 6.39354 18.0792 6.78005 18.383L8.814 19.9817C9.83104 19.7152 10.8617 19.6558 11.8651 19.1825 12.566 18.8519 13.8991 17.5838 13.8991 17.5838 15.7074 11.189 13.334 18.916 15.594 13.5875 17.8536 8.26007 14.5777 13.8527 17.2892 9.59127 17.5578 7.6908 17.8253 6.00314 17.9671 3.99628 18.0043 3.47065 17.9671 2.93058 17.9671 2.39757" stroke="#000000" stroke-width="1.33186" stroke-miterlimit="8" fill="none" fill-rule="evenodd" transform="matrix(1.00092 0 -0 1 1630.5 228.291)"/><path d="M0 12.9881C-1.78076e-15 5.81498 6.2623-1.65356e-15 13.9872-3.30712e-15 21.7122-6.61425e-15 27.9745 5.81498 27.9745 12.9881 27.9745 20.1613 21.7122 25.9763 13.9872 25.9763 6.2623 25.9763-8.90381e-15 20.1613 0 12.9881Z" stroke="#000000" stroke-width="1.99779" stroke-miterlimit="8" fill="#F2F2F2" fill-rule="evenodd" transform="matrix(1.00092 0 -0 1 1642 181.833)"/><path d="M0 12.2618C-2.29968e-15 5.48978 5.48978-2.29968e-15 12.2618-4.59936e-15L48.1684 0 48.1684 0 120.421 0 276.748 0C283.52-2.29968e-15 289.01 5.48978 289.01 12.2618L289.01 42.9147 289.01 42.9147 289.01 61.3069 289.01 61.3066C289.01 68.0786 283.52 73.5684 276.748 73.5684L120.421 73.5684 53.0016 98.469 48.1684 73.5684 12.2618 73.5684C5.48978 73.5684 0 68.0786 0 61.3066L0 61.3069 0 42.9147 0 42.9147Z" stroke="#000000" stroke-width="1.33188" stroke-miterlimit="8" fill="#FCFDFE" fill-rule="evenodd" transform="matrix(0.992973 0.125619 -0.125507 0.992093 31.1185 5.27091)"/><text font-family="GulimChe,GulimChe_MSFontService,sans-serif" font-weight="400" font-size="32" transform="matrix(0.992078 0.125391 -0.125735 0.991171 49.2229 58)">마<tspan x="31.9925" y="-0.011663">!</tspan><tspan x="64.1109" y="0.96966">니</tspan><tspan x="112.1" y="0.952166">자신있나</tspan></text><path d="M0.615546 42.0006C-0.270599 39.6082-0.137309 38.9625 0.615546 30.3042 0.699104 29.3434 1.29355 24.3097 2.21051 23.3927L3.80547 21.7978C4.78019 18.8734 3.75138 21.4937 5.40043 18.6078 5.7936 17.9198 6.07056 17.1693 6.46374 16.4812 6.78072 15.9265 7.2675 15.4702 7.52704 14.8863L9.122 10.1014C9.29917 9.56975 9.34287 8.97279 9.65366 8.50644L11.7803 5.31653C13.1544 3.25522 12.2374 3.92368 14.4385 3.18992 14.793 2.65826 15.0028 1.99416 15.5018 1.59496 15.9394 1.24482 16.5956 1.31398 17.0968 1.06331 17.6683 0.777469 18.1601 0.354491 18.6918 0 21.9058 0.803424 20.5873-0.161589 21.8817 3.72157L22.4133 5.31653C22.7593 9.81389 23.3558 18.4138 24.0083 22.3294 24.7459 26.7554 24.3876 24.4522 25.0716 29.2409 24.9274 30.1064 24.6316 32.9039 24.0083 34.0258 23.3877 35.1428 22.5905 36.1524 21.8817 37.2157 21.5272 37.7473 21.35 38.4562 20.8184 38.8106 19.7551 39.5195 18.532 40.0337 17.6285 40.9373 17.0968 41.4689 16.5149 41.9547 16.0335 42.5322 15.6244 43.023 15.5018 43.7727 14.9702 44.1272 14.3622 44.5326 13.5624 44.528 12.8436 44.6588 11.6106 44.883 10.3625 45.0133 9.122 45.1905 8.0587 45.0133 6.98434 44.8928 5.93208 44.6588 3.0352 44.0152 1.50169 44.3929 0.615546 42.0006Z" stroke="#000000" stroke-width="1.33192" stroke-miterlimit="8" fill="#F2F2F2" fill-rule="evenodd" transform="matrix(0.978542 0.210063 -0.209888 0.977725 31.3703 88.4931)"/><path d="M0.119727 29.7725C0.208308 29.0637 0.346119 23.029 0.651381 19.6711 0.702118 19.113 1.02915 18.615 1.18303 18.0762 1.38381 17.3736 1.50471 16.6495 1.71469 15.9496 2.03669 14.876 2.4235 13.823 2.778 12.7597 2.95516 12.228 3.1998 11.7143 3.30965 11.1647 3.48681 10.2786 3.60352 9.37818 3.8413 8.50643 4.13618 7.42505 4.55012 6.37983 4.90461 5.31652 5.28389 4.17887 5.52953 2.97541 6.49957 2.12661 7.46124 1.28501 9.6895 0 9.6895 0 10.044 0.531652 10.467 1.02345 10.7528 1.59496 11.0035 2.09613 11.0065 2.7033 11.2845 3.18991 11.724 3.95918 12.3478 4.60771 12.8794 5.31652 13.0566 6.20266 13.215 7.09266 13.4111 7.97478 13.5696 8.68812 13.7994 9.38488 13.9427 10.1014 14.1542 11.1585 14.2405 12.2391 14.4744 13.2913 14.5959 13.8384 14.8845 14.3392 15.006 14.8863 15.24 15.9385 15.2763 17.0305 15.5377 18.0762 15.8095 19.1636 16.2465 20.2028 16.601 21.2661L17.1327 22.861C16.9555 24.1015 16.961 25.3823 16.601 26.5826 16.2465 27.7641 15.006 28.7683 13.9427 29.2409 12.9184 29.696 11.8161 29.9497 10.7528 30.3042L7.56288 31.3675C7.03123 31.5446 6.51163 31.7632 5.96792 31.8991L1.71469 32.9624C1.3602 31.5446 0.812802 30.1617 0.651381 28.7092 0.474219 27.1143 0.668126 25.4326 0.119727 23.9243-0.0986281 23.3239 0.0311457 30.4813 0.119727 29.7725Z" stroke="#000000" stroke-width="1.33192" stroke-miterlimit="8" fill="#FBE5D6" fill-rule="evenodd" transform="matrix(0.978542 0.210063 -0.209888 0.977725 33.4077 104.156)"/><path d="M3.21772 22.8611C3.92653 21.9749 4.67687 21.1206 5.34433 20.2028L8.53425 15.4179 9.59755 13.823C9.95204 13.2913 10.4587 12.8342 10.6609 12.228 11.9971 8.21911 10.1945 13.1606 12.2558 9.0381 12.5065 8.53693 12.4373 7.88069 12.7875 7.44315 13.1867 6.94414 13.8508 6.73433 14.3824 6.37984 15.8498 1.97758 14.5132 3.81166 18.6357 1.06331L20.2306 0C21.496 3.79609 20.6722 2.25739 22.3572 4.78488 22.1801 11.6964 22.1194 18.6119 21.8256 25.5194 21.7189 28.0254 21.0203 31.6566 20.2306 34.0258 20.0535 34.5575 19.8528 35.0819 19.699 35.6208 19.4719 36.4156 19.0606 38.4925 18.6357 39.3423 18.3498 39.9138 17.8582 40.3658 17.5723 40.9373 16.9302 42.2215 17.2472 43.1115 15.9774 44.1272 15.5398 44.4774 14.9141 44.4817 14.3824 44.6589 6.72863 43.7022 12.5552 45.0745 8.53425 43.0639 8.03307 42.8132 7.42924 42.8044 6.93929 42.5323 5.82223 41.9117 3.74937 40.4056 3.74937 40.4056 0.702117 35.8348 4.35554 41.618 2.15441 37.2157 1.86857 36.6442 1.37694 36.1923 1.0911 35.6208 0.642672 34.7239 0.0745152 32.0675 0.0277967 31.3675-0.090088 29.5993 0.0277967 27.8231 3.21772 22.8611Z" stroke="#000000" stroke-width="1.33192" stroke-miterlimit="8" fill="#F2F2F2" fill-rule="evenodd" transform="matrix(0.978542 0.210063 -0.209888 0.977725 127.515 119.255)"/><path d="M0.554428 15.9496C1.08608 15.2408 2.4282 15.8662 3.2127 15.418 6.14224 13.744 1.89085 12.932 5.33932 10.6331L6.93428 9.56976C7.28877 8.50646 7.37585 7.31237 7.99759 6.37984 8.35208 5.84819 8.77506 5.35639 9.0609 4.78488 9.31157 4.2837 9.32045 3.67988 9.59256 3.18992 10.2131 2.07286 11.7192 0 11.7192 0 12.2569 0.806439 13.3141 2.08927 13.3141 3.18992 13.3141 6.1352 13.2885 12.1446 12.2508 15.9496 11.9559 17.031 11.4593 18.0521 11.1875 19.1395 10.3841 22.3536 10.8869 20.5729 9.59256 24.4561 9.41539 24.9877 9.37169 25.5847 9.0609 26.051L7.99759 27.646C6.57979 27.4688 5.12281 27.4903 3.74436 27.1143 3.12797 26.9462 2.60117 26.5028 2.14939 26.051 1.33006 25.2317 0.801584 23.973 0.554428 22.8611 0.3205 21.8088 0.130109 20.7439 0.0227732 19.6712-0.0477233 18.9659 0.0227732 16.6584 0.554428 15.9496Z" stroke="#000000" stroke-width="1.33192" stroke-miterlimit="8" fill="#FBE5D6" fill-rule="evenodd" transform="matrix(0.978542 0.210063 -0.209888 0.977725 129.222 131.585)"/><path d="M11.6964 183.952C6.81554 177.851 11.116 183.854 9.0381 179.699 8.75226 179.127 8.23434 178.688 7.97479 178.104 7.51967 177.08 6.91149 174.914 6.91149 174.914 7.08865 172.256 6.82609 169.531 7.44314 166.939 8.02821 164.481 9.45438 163.826 11.1647 162.686 11.5192 162.154 11.7762 161.543 12.228 161.091 13.5368 159.782 15.0005 160.465 13.2913 157.901 12.9368 157.369 12.228 157.192 11.6964 156.838 11.3419 156.306 11.1321 155.642 10.6331 155.243 10.1955 154.893 9.43445 155.107 9.0381 154.711 8.64175 154.315 8.75712 153.617 8.50645 153.116 8.22061 152.545 7.70269 152.105 7.44314 151.521 6.70352 149.857 6.29008 147.972 5.84818 146.205 6.02534 144.61 6.11593 143.003 6.37984 141.42 6.47193 140.867 6.56135 140.262 6.91149 139.825 7.31069 139.326 7.97479 139.116 8.50645 138.761 8.86094 138.23 9.08884 137.587 9.56975 137.167 10.5314 136.325 12.7597 135.04 12.7597 135.04 12.5825 134.154 12.5453 133.228 12.228 132.382 11.688 130.942 10.51 130.32 9.56975 129.192 7.35456 126.533 9.8355 128.483 6.91149 126.533 5.64607 122.737 6.46992 124.276 4.78488 121.749 4.96204 119.267 4.88434 116.755 5.31653 114.305 5.52233 113.139 7.06018 112.104 7.97479 111.647 8.47597 111.396 9.07979 111.388 9.56975 111.116 15.0541 108.069 10.7456 109.66 14.3546 108.457 14.1775 107.926 14.0951 107.352 13.823 106.862 13.2024 105.745 12.4052 104.736 11.6964 103.672L10.6331 102.077C10.2786 101.546 9.77186 101.089 9.56975 100.482 9.39259 99.9508 9.31021 99.3774 9.0381 98.8875 8.41753 97.7704 6.91149 95.6976 6.91149 95.6976 6.03958 90.4656 6.0667 92.1352 6.91149 84.5329 6.97344 83.9759 7.19247 83.4391 7.44314 82.9379 8.55082 80.7227 9.30401 80.8113 11.6964 79.2163L13.2913 78.153C13.4685 77.6214 13.9151 77.1108 13.823 76.5581 13.6014 75.229 12.0951 74.52 11.1647 73.8998 10.9875 73.3681 10.9832 72.7424 10.6331 72.3048 7.88471 68.8694 9.8427 73.6555 8.50645 69.6466 8.68361 67.3428 8.61228 65.0062 9.0381 62.7351 9.15582 62.107 9.84186 61.724 10.1014 61.1401 10.5565 60.1158 10.543 58.8827 11.1647 57.9502 11.5192 57.4185 11.7471 56.776 12.228 56.3552 13.1897 55.5136 14.3546 54.9374 15.4179 54.2286 17.4792 52.8545 16.4067 53.3674 18.6079 52.6337 18.785 52.102 19.1395 51.5992 19.1395 51.0387 19.1395 49.3267 18.2376 49.1969 17.0129 48.3804L13.823 43.5956C13.4685 43.0639 12.9618 42.6068 12.7597 42.0006L11.6964 38.8107C11.8735 36.5069 11.9413 34.1919 12.228 31.8992 12.341 30.9943 13.1564 29.2925 13.823 28.7093 14.7846 27.8677 15.9496 27.2915 17.0129 26.5827 19.2159 25.114 17.988 25.6742 20.7345 24.9877 21.5858 23.7107 22.0543 23.311 22.3294 21.7978 22.695 19.7872 22.6486 16.2683 23.9244 14.3546 24.2789 13.823 24.5359 13.2115 24.9877 12.7597 26.2514 11.4959 28.1933 11.1595 29.7726 10.6331L31.3675 10.1014 32.9625 9.56976C39.8951 10.7252 37.2971 11.3148 40.9373 10.1014 41.1144 9.56976 41.1968 8.99641 41.4689 8.50645 42.0895 7.38939 42.5322 6.02535 43.5955 5.31653 47.2518 2.87913 45.5731 3.59398 48.3804 2.65827 52.6336 2.83543 56.9142 2.67769 61.1401 3.18992 65.6575 3.73748 64.8581 4.32724 67.5199 5.84818 68.208 6.24136 68.9377 6.557 69.6465 6.91149 70.1782 6.557 70.9029 6.39005 71.2415 5.84818 71.8356 4.89774 71.3723 3.28001 72.3048 2.65827 76.6836-0.260887 74.2266 0.690228 79.7479 0 82.0517 0.177162 84.3667 0.244979 86.6594 0.531653 87.7343 0.665948 89.0722 1.43588 89.8493 2.12661 90.9733 3.12562 91.7881 4.48246 93.0393 5.31653L94.6342 6.37984C94.8487 7.45202 94.727 10.1014 96.7608 10.1014 97.8816 10.1014 98.8875 9.39259 99.9508 9.0381L101.546 8.50645C105.622 8.68361 109.721 8.57042 113.774 9.0381 114.409 9.11128 114.797 9.81557 115.369 10.1014 115.87 10.3521 116.432 10.4559 116.964 10.6331 121.623 15.2927 115.921 9.38188 119.622 13.823 120.103 14.4005 120.685 14.8863 121.217 15.4179 121.394 15.9496 121.498 16.5117 121.749 17.0129 122.034 17.5844 122.733 17.9739 122.812 18.6079 122.924 19.5046 122.457 20.38 122.28 21.2661 122.812 21.6206 123.304 22.0436 123.875 22.3294 124.376 22.5801 125.014 22.5354 125.47 22.8611 131.74 27.3395 123.868 23.1231 129.723 26.051 132.773 30.1172 130.046 26.2174 132.382 30.3042 132.699 30.859 133.185 31.3153 133.445 31.8992 133.9 32.9235 134.508 35.0891 134.508 35.0891 134.389 36.5144 134.531 40.8922 133.445 43.0639 133.159 43.6354 132.881 44.2597 132.382 44.6589 131.944 45.009 131.318 45.0134 130.787 45.1905L133.977 46.2538 135.572 46.7855C138.07 49.284 136.749 47.7548 139.293 51.5704 139.648 52.102 140.154 52.5591 140.356 53.1653 140.534 53.697 140.637 54.2591 140.888 54.7603 142.949 58.8827 141.147 53.9413 142.483 57.9502 142.306 60.7856 142.335 63.6416 141.951 66.4566 141.318 71.0982 141.46 68.5429 139.293 70.7099 137.378 72.6252 138.144 72.6201 136.635 74.4314 133.224 78.5249 136.617 73.6613 133.977 77.6214 137.985 78.9576 133.044 77.155 137.166 79.2163 141.569 81.4174 135.785 77.764 140.356 80.8113 142.888 84.6092 142.173 82.7614 143.015 86.1278 142.837 89.3177 142.935 92.5348 142.483 95.6976 142.393 96.3302 141.758 96.7507 141.42 97.2925 140.872 98.1688 140.372 99.0745 139.825 99.9508 139.486 100.493 139.213 101.094 138.761 101.546 138.31 101.998 137.698 102.255 137.166 102.609 136.231 105.416 136.946 103.738 134.508 107.394 134.154 107.926 133.897 108.537 133.445 108.989 132.913 109.521 132.331 110.006 131.85 110.584 129.635 113.242 132.116 111.293 129.192 113.242 133.445 114.66 128.128 113.242 132.382 113.242 132.987 113.242 136.18 113.757 137.166 114.305 138.284 114.926 140.356 116.432 140.356 116.432L142.483 119.622 143.546 121.217C145.381 128.554 145.017 125.363 144.078 136.635 143.964 138.004 141.983 141.044 141.42 141.42L139.825 142.483C141.716 142.753 143.76 142.499 145.141 144.078 145.983 145.04 147.268 147.268 147.268 147.268 146.899 157.239 148.846 158.197 145.673 163.749 145.356 164.304 144.895 164.773 144.61 165.344 143.326 167.912 145.172 166.21 142.483 168.002 142.306 168.534 142.301 169.16 141.951 169.597 141.552 170.096 140.356 170.022 140.356 170.661 140.356 171.3 141.461 171.315 141.951 171.724 146.045 175.135 141.181 171.742 145.141 174.382L147.268 177.572C147.622 178.104 148.129 178.561 148.331 179.167L148.863 180.762C148.508 185.192 148.407 189.65 147.8 194.053 147.691 194.839 147.244 195.571 146.736 196.18 146.327 196.671 145.661 196.872 145.141 197.243 144.42 197.758 143.871 198.61 143.015 198.838 141.123 199.343 139.116 199.193 137.166 199.37 136.103 199.724 135.064 200.161 133.977 200.433 132.931 200.695 131.863 200.912 130.787 200.965 124.589 201.267 118.381 201.319 112.179 201.497L105.267 202.028 96.7608 202.56C95.1612 202.688 93.5734 202.939 91.976 203.092 89.8515 203.294 87.7184 203.4 85.5961 203.623 84.35 203.754 83.1262 204.094 81.8746 204.155 76.6573 204.409 45.5609 205.131 42.0006 205.218 39.6968 205.395 37.3979 205.659 35.0891 205.75 12.2896 206.644 21.7192 204.915 12.228 206.813L3.18992 206.281C2.20012 205.985 1.96586 204.588 1.59496 203.623 1.07034 202.259 0.993814 200.756 0.531653 199.37L0 197.775C0.177162 195.117-0.0785339 192.393 0.531653 189.8 0.678004 189.178 1.64151 189.153 2.12661 188.737 7.42958 184.191 0.521941 189.098 7.44314 184.484L11.6964 183.952Z" stroke="#000000" stroke-width="1.33192" stroke-miterlimit="8" fill="#F2F2F2" fill-rule="evenodd" transform="matrix(0.978542 0.210063 -0.209888 0.977725 13.1502 103.039)"/><path d="M0-6.74779C1.11684e-15-3.02109-3.92752 8.59083e-16-8.77235 1.71817e-15-13.6172 3.43633e-15-17.5447-3.02109-17.5447-6.74779-17.5447-10.4745-13.6172-13.4956-8.77235-13.4956-3.92752-13.4956 5.58419e-15-10.4745 0-6.74779Z" fill-rule="evenodd" transform="matrix(0.978542 0.210063 0.209888 -0.977725 58.2777 166.236)"/><path d="M0-6.74779C1.11684e-15-3.02109-3.92752 8.59083e-16-8.77235 1.71817e-15-13.6172 3.43633e-15-17.5447-3.02109-17.5447-6.74779-17.5447-10.4745-13.6172-13.4956-8.77235-13.4956-3.92752-13.4956 5.58419e-15-10.4745 0-6.74779Z" fill-rule="evenodd" transform="matrix(0.978542 0.210063 0.209888 -0.977725 111.295 175.842)"/><path d="M8.37349 3.18992C5.05062 5.78171 3.20365 12.1636 0.797395 16.747 0.406568 17.4913 0 19.1395 0 19.1395 0.132955 22.8611 0.0713335 26.5947 0.398698 30.3042 0.472543 31.1416 0.729913 31.9971 1.19626 32.6966L2.79122 35.0891C3.85436 36.6839 3.18992 36.0195 4.78487 37.0828 6.24671 39.2758 4.78487 37.4151 6.77853 39.0764 8.77001 40.7358 7.06872 39.9706 9.17105 40.6714 9.43679 41.0701 9.59419 41.5682 9.96844 41.8676 10.2966 42.1302 10.7888 42.0783 11.1647 42.2663 11.5934 42.4807 11.9122 42.8956 12.361 43.0639 12.9956 43.3018 13.6972 43.2982 14.3546 43.4626 14.7624 43.5646 15.1522 43.7283 15.5509 43.8613L28.7092 43.4626C29.648 43.4157 30.5689 43.1881 31.5005 43.0639 39.2269 42.0336 30.4688 43.268 37.4814 42.2663L39.8739 41.4689 41.0702 41.0701C41.6019 40.6714 42.1245 40.2603 42.6652 39.874 43.8167 39.0515 44.127 39.0764 45.0575 37.8802 45.6459 37.1236 46.3494 36.397 46.6525 35.4878 47.2027 33.8369 46.8181 34.6412 47.8487 33.0953 47.9817 32.2979 48.1028 31.4983 48.2474 30.7029 48.3687 30.0361 48.6461 29.3869 48.6461 28.7093 48.6461 22.9924 48.5967 17.2696 48.2474 11.5634 48.1515 9.99541 47.4301 9.14108 46.6525 7.9748 45.7221 5.18358 46.6526 5.84802 44.6588 5.18358 43.8827 2.85468 44.8675 4.99335 43.0639 3.18992 41.2601 1.38632 43.3989 2.37126 41.0702 1.59496 40.6715 1.32905 40.3026 1.01173 39.8739 0.797396 38.5382 0.129439 36.2254 0.126257 35.0891 0 32.6965 0.132955 30.2988 0.19106 27.9117 0.398698 27.2365 0.457473 26.5915 0.722546 25.918 0.797396 24.1956 0.988791 22.4652 1.10735 20.7345 1.19609 12.7582 1.60517 11.6964 0.598131 8.37349 3.18992Z" stroke="#000000" stroke-width="0.998938" stroke-miterlimit="8" fill="#FFFFFF" fill-rule="evenodd" transform="matrix(0.978542 0.210063 -0.209888 0.977725 49.8381 172.454)"/><path d="M1.59495 3.99803C5.2204 7.62316 3.71168 5.85388 2.39252 5.1943-0.90925 3.54341 3.42819 6.28322 0 3.99803 0.398697 3.73212 0.747494 3.36876 1.19626 3.20047 3.39872 2.37461 5.72794 3.01326 7.97477 3.20047 8.37347 3.33343 9.06906 3.1916 9.17103 3.59934 9.28724 4.06418 8.71239 4.45668 8.37364 4.79543 7.60052 5.56855 6.95434 5.66734 5.98112 5.99169 5.58243 5.85874 5.08209 5.89022 4.78486 5.59299 4.48764 5.29577 4.38617 4.81703 4.38617 4.39673 4.38617 3.97643 4.5223 3.52867 4.78486 3.20047 5.34699 2.49785 6.38953 2.26694 7.17738 2.00438 8.24068 2.13733 9.37231 2.00505 10.3673 2.40307 10.7576 2.55914 9.54696 2.61373 9.17103 2.80177 6.07875 4.348 9.7854 2.99585 6.77868 3.99803 6.64573 4.39673 6.67704 4.89707 6.37982 5.1943 5.53855 6.03556 3.44025 5.30247 2.79121 5.1943 2.28786 5.02651 0.636642 4.59248 0.398864 3.99803 0.242802 3.60771 0.455462 3.04608 0.797561 2.80177 1.48159 2.31315 2.39252 2.27012 3.18991 2.00438L6.77868 0.808113C7.17738 0.675158 7.55866 0.46886 7.97477 0.409415 11.5555-0.102312 9.82609 0.0105493 13.1585 0.0105493" stroke="#FF99FF" stroke-width="1.33192" stroke-miterlimit="8" fill="none" fill-rule="evenodd" transform="matrix(0.978542 0.210063 -0.209888 0.977725 66.0872 185.729)"/><path d="M0 4.78487C0.886141 5.13936 1.7614 5.52199 2.65826 5.84818 3.71151 6.23114 4.91564 6.28974 5.84817 6.91148 7.90947 8.28557 6.83695 7.77268 9.03807 8.50644 13.2913 5.67102 8.15193 9.39258 11.6963 5.84818 12.1481 5.3964 12.7596 5.13936 13.2913 4.78487 13.6458 4.25322 13.9028 3.64169 14.3546 3.18992 14.8064 2.73814 15.5503 2.62561 15.9495 2.12661 18.1394-0.610689 14.896 1.32419 17.5445 0" stroke="#000000" stroke-width="1.33192" stroke-miterlimit="8" fill="none" fill-rule="evenodd" transform="matrix(0.978542 0.210063 -0.209888 0.977725 63.8095 184.299)"/><path d="M12.7597 0C12.5825 2.12662 12.51 4.26462 12.228 6.37985 12.154 6.93528 12.0465 7.53726 11.6964 7.97481 10.9469 8.91169 9.55719 9.21947 8.50644 9.56977 6.91148 9.39261 5.29526 9.35292 3.72157 9.03812 2.62243 8.81826 1.03283 8.97733 0.531653 7.97481L0 6.9115" stroke="#000000" stroke-width="1.33192" stroke-miterlimit="8" fill="none" fill-rule="evenodd" transform="matrix(0.978542 0.210063 -0.209888 0.977725 58.8996 191.945)"/><path d="M0 3.72156C0.531653 4.6077 0.597963 6.10788 1.59496 6.37981 2.25454 6.55965 6.04846 5.2497 7.44315 4.78486 7.79764 4.25321 8.05467 3.64168 8.50645 3.18991 8.95823 2.73813 9.70221 2.6256 10.1014 2.1266 10.4515 1.68906 10.3824 1.03283 10.6331 0.531651 10.7451 0.307437 10.9876 0.177161 11.1647 0" stroke="#000000" stroke-width="1.33192" stroke-miterlimit="8" fill="none" fill-rule="evenodd" transform="matrix(0.978542 0.210063 -0.209888 0.977725 69.6743 197.521)"/><path d="M0.718832 0.261228C-0.798649 0.988715 0.437162 4.44294 1.22466 6.26347 2.20843 8.53753 5.51041 8.67089 7.29458 8.99176 8.81206 8.80993 10.4814 9.18269 11.847 8.4461 12.3239 8.18882 11.4569 7.37059 11.3412 6.80912 11.1186 5.72915 11.0579 4.61515 10.8354 3.53518 10.7197 2.97371 10.7634 2.23247 10.3295 1.8982 8.39067 0.404217 2.23631-0.466258 0.718832 0.261228Z" stroke="#000000" stroke-width="1.33186" stroke-miterlimit="8" fill="#FF0000" fill-rule="evenodd" transform="matrix(1.00092 0 -0 1 63.5 203.314)"/><path d="M0.417077 28.4586C-0.183351 26.8376-0.0930369 26.4001 0.417077 20.5334 0.473694 19.8824 0.876475 16.4716 1.49778 15.8503L2.57848 14.7696C3.23893 12.7882 2.54183 14.5636 3.65918 12.6082 3.92559 12.142 4.11325 11.6335 4.37965 11.1673 4.59443 10.7914 4.92426 10.4822 5.10012 10.0866L6.18082 6.84447C6.30086 6.48423 6.33048 6.07975 6.54106 5.76376L7.98199 3.60235C8.91304 2.20566 8.29174 2.65859 9.78316 2.16141 10.0234 1.80118 10.1655 1.35119 10.5036 1.08071 10.8001 0.843461 11.2448 0.89032 11.5843 0.72047 11.9716 0.526794 12.3048 0.240195 12.665 0 14.8428 0.54438 13.9494-0.109489 14.8264 2.52165L15.1867 3.60235C15.4211 6.64966 15.8252 12.4767 16.2674 15.1299 16.7672 18.1288 16.5244 16.5682 16.9878 19.8129 16.8902 20.3994 16.6897 22.2949 16.2674 23.055 15.8469 23.8119 15.3067 24.496 14.8264 25.2165 14.5862 25.5767 14.4662 26.057 14.106 26.2972 13.3855 26.7774 12.5568 27.1259 11.9446 27.7381 11.5843 28.0983 11.1901 28.4275 10.8639 28.8188 10.5867 29.1514 10.5036 29.6593 10.1434 29.8995 9.73143 30.1742 9.18954 30.1711 8.70246 30.2597 7.86706 30.4117 7.02133 30.4999 6.18082 30.62 5.46036 30.4999 4.7324 30.4182 4.01942 30.2597 2.05657 29.8236 1.01751 30.0796 0.417077 28.4586Z" stroke="#000000" stroke-width="1.33217" stroke-miterlimit="8" fill="#F2F2F2" fill-rule="evenodd" transform="matrix(0.863691 -0.50491 0.504684 0.863304 169.506 199.143)"/><path d="M0.0811241 20.1731C0.141145 19.6928 0.234523 15.6038 0.441361 13.3286 0.475739 12.9505 0.697327 12.6131 0.801597 12.2479 0.937636 11.7719 1.01955 11.2813 1.16183 10.807 1.38002 10.0796 1.64211 9.36607 1.88231 8.64561 2.00235 8.28537 2.16811 7.93728 2.24254 7.56491 2.36258 6.96448 2.44167 6.35441 2.60278 5.76374 2.80258 5.03102 3.08306 4.3228 3.32325 3.60234 3.58024 2.83149 3.74669 2.01606 4.40396 1.44093 5.05557 0.870687 6.56538 0 6.56538 0 6.80558 0.360234 7.09218 0.693464 7.28586 1.0807 7.45571 1.42028 7.45775 1.83169 7.64609 2.1614 7.94393 2.68263 8.36657 3.12206 8.7268 3.60234 8.84684 4.20276 8.95418 4.8058 9.08704 5.4035 9.19449 5.88684 9.35015 6.35895 9.44728 6.84444 9.59058 7.56071 9.64901 8.29286 9.80751 9.00584 9.88988 9.37651 10.0854 9.71587 10.1677 10.0865 10.3263 10.7995 10.3509 11.5394 10.528 12.2479 10.7121 12.9847 11.0083 13.6889 11.2485 14.4093L11.6087 15.49C11.4887 16.3306 11.4924 17.1984 11.2485 18.0117 11.0083 18.8123 10.1677 19.4927 9.44728 19.8128 8.75324 20.1212 8.00633 20.2931 7.28586 20.5333L5.12444 21.2538C4.7642 21.3738 4.41213 21.5219 4.04373 21.614L1.16183 22.3345C0.921638 21.3738 0.550736 20.4368 0.441361 19.4526 0.32132 18.3719 0.452707 17.2324 0.0811241 16.2105-0.0668281 15.8036 0.0211036 20.6534 0.0811241 20.1731Z" stroke="#000000" stroke-width="1.33217" stroke-miterlimit="8" fill="#FBE5D6" fill-rule="evenodd" transform="matrix(0.863691 -0.50491 0.504684 0.863304 177.694 206.04)"/><path d="M2.43144 17.2748C2.96705 16.6052 3.53404 15.9596 4.0384 15.2661L6.44884 11.6504 7.25232 10.4452C7.52019 10.0435 7.90308 9.69805 8.0558 9.24 9.06553 6.2107 7.70341 9.94466 9.26102 6.82957 9.45044 6.45086 9.39818 5.95498 9.66276 5.62435 9.96441 5.24728 10.4662 5.08874 10.868 4.82087 11.9768 1.49434 10.9668 2.88025 14.0819 0.803478L15.2871 0C16.2433 2.86848 15.6208 1.70578 16.8941 3.61565 16.7602 8.83826 16.7144 14.0639 16.4923 19.2835 16.4117 21.1772 15.8838 23.921 15.2871 25.7113 15.1532 26.113 15.0017 26.5093 14.8854 26.9165 14.7138 27.5172 14.403 29.0866 14.0819 29.7287 13.8659 30.1606 13.4944 30.5021 13.2784 30.9339 12.7932 31.9043 13.0327 32.5768 12.0732 33.3444 11.7426 33.6089 11.2697 33.6122 10.868 33.7461 5.08444 33.0232 9.48726 34.0601 6.44884 32.5409 6.07013 32.3515 5.61385 32.3448 5.24362 32.1391 4.39953 31.6702 2.83318 30.5322 2.83318 30.5322 0.53055 27.0782 3.29123 31.4483 1.62796 28.1217 1.41197 27.6899 1.04047 27.3484 0.824484 26.9165 0.485631 26.2388 0.0563068 24.2315 0.0210043 23.7026-0.0680743 22.3664 0.0210043 21.0243 2.43144 17.2748Z" stroke="#000000" stroke-width="1.33189" stroke-miterlimit="8" fill="#F2F2F2" fill-rule="evenodd" transform="matrix(0.988401 -0.157495 0.157358 0.987542 219.397 192.872)"/><path d="M0.418949 12.0522C0.82069 11.5166 1.83485 11.9892 2.42765 11.6505 4.64134 10.3855 1.4288 9.77197 4.03462 8.0348L5.23984 7.23132C5.50771 6.42784 5.5735 5.52554 6.04332 4.82088 6.31119 4.41914 6.63081 4.04752 6.8468 3.61566 7.03622 3.23695 7.04293 2.78067 7.24854 2.41044 7.71747 1.56634 8.8555 0 8.8555 0 9.2618 0.60938 10.0607 1.57874 10.0607 2.41044 10.0607 4.63602 10.0414 9.17701 9.25725 12.0522 9.03442 12.8694 8.65913 13.6409 8.45376 14.4626 7.84666 16.8913 8.22664 15.5458 7.24854 18.48 7.11467 18.8818 7.08164 19.3329 6.8468 19.6853L6.04332 20.8905C4.97197 20.7566 3.87101 20.7728 2.82939 20.4887 2.36363 20.3617 1.96556 20.0267 1.62417 19.6853 1.00505 19.0661 0.605711 18.115 0.418949 17.2748 0.242183 16.4797 0.0983158 15.675 0.0172084 14.8644-0.0360618 14.3314 0.0172084 12.5878 0.418949 12.0522Z" stroke="#000000" stroke-width="1.33189" stroke-miterlimit="8" fill="#FBE5D6" fill-rule="evenodd" transform="matrix(0.988401 -0.157495 0.157358 0.987542 223.971 201.093)"/><path d="M8.76125 137.79C5.10523 133.22 8.32651 137.717 6.77006 134.605 6.55595 134.176 6.16799 133.847 5.97358 133.41 5.63266 132.643 5.1771 131.02 5.1771 131.02 5.30981 129.029 5.11313 126.988 5.57534 125.047 6.01359 123.206 7.08187 122.715 8.36301 121.861 8.62854 121.463 8.82108 121.005 9.15949 120.666 10.1398 119.686 11.2362 120.197 9.95597 118.277 9.69043 117.879 9.15949 117.746 8.76125 117.48 8.49572 117.082 8.33855 116.585 7.96477 116.286 7.63702 116.023 7.06695 116.184 6.77006 115.887 6.47316 115.59 6.55959 115.068 6.37182 114.693 6.15771 114.265 5.76976 113.935 5.57534 113.498 5.02132 112.251 4.71163 110.839 4.38062 109.516 4.51333 108.321 4.58119 107.117 4.77886 105.931 4.84785 105.517 4.91483 105.064 5.1771 104.737 5.47613 104.363 5.97358 104.206 6.37182 103.94 6.63735 103.542 6.80806 103.061 7.16829 102.745 7.88864 102.115 9.55773 101.153 9.55773 101.153 9.42502 100.489 9.39718 99.7951 9.15949 99.1613 8.75498 98.0827 7.87258 97.6171 7.16829 96.7719 5.50899 94.7807 7.36735 96.241 5.1771 94.7807 4.22923 91.9372 4.84634 93.0898 3.58415 91.1966 3.71685 89.3381 3.65865 87.456 3.98239 85.6212 4.13654 84.7476 5.28848 83.9726 5.97358 83.6301 6.34899 83.4423 6.80129 83.4356 7.16829 83.2318 11.2764 80.9495 8.04906 82.1417 10.7524 81.2406 10.6197 80.8424 10.558 80.4129 10.3542 80.0459 9.88936 79.2092 9.29219 78.4529 8.76125 77.6565L7.96477 76.4618C7.69924 76.0635 7.31969 75.7211 7.16829 75.267 7.03559 74.8688 6.97388 74.4393 6.77006 74.0723 6.30521 73.2356 5.1771 71.6829 5.1771 71.6829 4.52399 67.7639 4.54431 69.0145 5.1771 63.3199 5.22351 62.9027 5.38757 62.5006 5.57534 62.1252 6.40506 60.4659 6.96924 60.5322 8.76125 59.3375L9.95597 58.541C10.0887 58.1428 10.4232 57.7604 10.3542 57.3463 10.1883 56.3508 9.0599 55.8197 8.36301 55.3551 8.23031 54.9569 8.22705 54.4882 7.96477 54.1604 5.9061 51.5871 7.37275 55.1721 6.37182 52.1692 6.50452 50.4436 6.45109 48.6933 6.77006 46.9921 6.85823 46.5216 7.37212 46.2348 7.56653 45.7974 7.90745 45.0302 7.89729 44.1065 8.36301 43.408 8.62854 43.0097 8.79925 42.5285 9.15949 42.2133 9.87983 41.5829 10.7524 41.1513 11.5489 40.6203 13.093 39.591 12.2896 39.9752 13.9384 39.4256 14.0711 39.0274 14.3366 38.6507 14.3366 38.2309 14.3366 36.9485 13.661 36.8513 12.7436 36.2397L10.3542 32.6555C10.0887 32.2573 9.70912 31.9149 9.55773 31.4608L8.76125 29.0714C8.89395 27.3457 8.94475 25.6117 9.15949 23.8943 9.24415 23.2165 9.85487 21.9417 10.3542 21.5049 11.0745 20.8745 11.9472 20.4429 12.7436 19.9119 14.3938 18.8118 13.474 19.2315 15.5313 18.7172 16.169 17.7607 16.5199 17.4613 16.726 16.3278 16.9998 14.8217 16.9651 12.1858 17.9207 10.7524 18.1863 10.3542 18.3788 9.89613 18.7172 9.55772 19.6638 8.6111 21.1184 8.35912 22.3014 7.96477L23.4961 7.56653 24.6908 7.16829C29.8837 8.03375 27.9377 8.47539 30.6644 7.56653 30.7971 7.16829 30.8588 6.73882 31.0626 6.37181 31.5275 5.53507 31.8591 4.51333 32.6556 3.98238 35.3943 2.15663 34.1369 2.69209 36.2397 1.99119 39.4256 2.1239 42.632 2.00574 45.7974 2.38943 49.1813 2.79958 48.5825 3.24135 50.5763 4.38062 51.0917 4.67513 51.6383 4.91156 52.1693 5.1771 52.5675 4.91156 53.1104 4.78651 53.364 4.38062 53.809 3.66868 53.4619 2.45691 54.1604 1.99119 57.4404-0.195419 55.6 0.51702 59.7358 0 61.4614 0.132704 63.1955 0.183503 64.9129 0.398238 65.718 0.498833 66.7202 1.07556 67.3023 1.59295 68.1442 2.34127 68.7545 3.35762 69.6918 3.98238L70.8865 4.77886C71.0471 5.58198 70.956 7.56653 72.4794 7.56653 73.3189 7.56653 74.0724 7.03559 74.8689 6.77005L76.0636 6.37181C79.1168 6.50452 82.1872 6.41973 85.2231 6.77005 85.6986 6.82486 85.9897 7.35242 86.4178 7.56653 86.7932 7.7543 87.2143 7.83206 87.6125 7.96477 91.1028 11.4551 86.8314 7.02756 89.6037 10.3542 89.9643 10.7868 90.4002 11.1507 90.7984 11.5489 90.9311 11.9472 91.0089 12.3682 91.1966 12.7436 91.4108 13.1717 91.9338 13.4635 91.9931 13.9383 92.077 14.61 91.7276 15.2658 91.5949 15.9295 91.9931 16.1951 92.3615 16.5119 92.7896 16.726 93.165 16.9138 93.6428 16.8803 93.9843 17.1242 98.6806 20.4789 92.784 17.3205 97.1702 19.5137 99.4545 22.5595 97.4122 19.6384 99.1614 22.6996 99.3988 23.1151 99.7635 23.4569 99.9579 23.8943 100.299 24.6616 100.754 26.2837 100.754 26.2837 100.665 27.3514 100.771 30.6306 99.9579 32.2573 99.7438 32.6854 99.5352 33.153 99.1614 33.452 98.8337 33.7143 98.3649 33.7176 97.9667 33.8503L100.356 34.6467 101.551 35.045C103.422 36.9165 102.433 35.7711 104.339 38.6291 104.604 39.0274 104.984 39.3698 105.135 39.8238 105.268 40.2221 105.345 40.6431 105.533 41.0186 107.077 44.1065 105.727 40.4051 106.728 43.408 106.595 45.5319 106.617 47.6712 106.33 49.7798 105.856 53.2566 105.962 51.3425 104.339 52.9657 102.904 54.4004 103.478 54.3966 102.347 55.7534 99.7921 58.8196 102.334 55.1765 100.356 58.1428 103.359 59.1437 99.6576 57.7935 102.746 59.3375 106.043 60.9863 101.711 58.2497 105.135 60.5322 107.032 63.3771 106.496 61.993 107.126 64.5146 106.993 66.904 107.066 69.3138 106.728 71.6829 106.66 72.1568 106.185 72.4717 105.931 72.8776 105.521 73.534 105.147 74.2124 104.737 74.8688 104.483 75.2747 104.279 75.7251 103.94 76.0635 103.602 76.4019 103.144 76.5945 102.746 76.86 102.045 78.9628 102.58 77.7054 100.754 80.4441 100.489 80.8424 100.296 81.3005 99.9579 81.6389 99.5596 82.0371 99.1238 82.401 98.7632 82.8336 97.1039 84.8248 98.9624 83.3645 96.772 84.8248 99.9579 85.8868 95.9755 84.8248 99.1614 84.8248 99.6152 84.8248 102.006 85.2106 102.746 85.6212 103.582 86.0861 105.135 87.2142 105.135 87.2142L106.728 89.6036 107.524 90.7983C108.898 96.2943 108.626 93.904 107.923 102.347 107.837 103.373 106.354 105.65 105.931 105.931L104.737 106.728C106.153 106.93 107.684 106.74 108.719 107.923 109.35 108.643 110.312 110.312 110.312 110.312 110.036 117.781 111.494 118.498 109.117 122.657 108.88 123.073 108.535 123.424 108.321 123.852 107.359 125.776 108.742 124.501 106.728 125.843 106.595 126.242 106.592 126.71 106.33 127.038 106.031 127.412 105.135 127.356 105.135 127.835 105.135 128.313 105.962 128.325 106.33 128.631 109.396 131.186 105.753 128.645 108.719 130.622L110.312 133.012C110.578 133.41 110.957 133.752 111.109 134.206L111.507 135.401C111.241 138.72 111.165 142.059 110.71 145.357 110.629 145.945 110.294 146.494 109.914 146.95 109.607 147.318 109.109 147.468 108.719 147.746 108.179 148.132 107.768 148.77 107.126 148.941 105.709 149.319 104.206 149.207 102.746 149.339 101.949 149.605 101.171 149.932 100.356 150.136 99.5728 150.332 98.7732 150.495 97.9667 150.534 93.3242 150.761 88.6745 150.8 84.0283 150.932L78.8512 151.331 72.4794 151.729C71.2812 151.825 70.0919 152.013 68.8953 152.127 67.304 152.279 65.7061 152.358 64.1164 152.525 63.183 152.624 62.2663 152.878 61.3287 152.924 57.4207 153.114 34.1277 153.655 31.4608 153.72 29.7352 153.853 28.0132 154.05 26.2837 154.118 9.20565 154.788 16.269 153.493 9.15949 154.915L2.38943 154.516C1.64802 154.294 1.47254 153.248 1.19472 152.525 0.801745 151.504 0.744424 150.378 0.398239 149.339L0 148.145C0.132704 146.153-0.0588264 144.114 0.398239 142.171 0.507864 141.705 1.22959 141.686 1.59295 141.375 5.56518 137.97 0.390964 141.645 5.57534 138.189L8.76125 137.79Z" stroke="#000000" stroke-width="1.33187" stroke-miterlimit="8" fill="#F2F2F2" fill-rule="evenodd" transform="matrix(1.00007 0.0410542 -0.0410168 0.999158 158.159 206.441)"/><path d="M0-3.90011C6.45512e-16-1.74614-2.27003 4.96536e-16-5.07026 9.93072e-16-7.87049 1.98614e-15-10.1405-1.74614-10.1405-3.90011-10.1405-6.05408-7.87049-7.80022-5.07026-7.80022-2.27003-7.80022 3.22756e-15-6.05408 0-3.90011Z" fill-rule="evenodd" transform="matrix(1.00007 0.0410543 0.0410169 -0.999158 201.425 239.591)"/><path d="M1.19471 2.99476C3.91036 5.71019 2.78025 4.3849 1.79212 3.89083-0.681077 2.65422 2.5679 4.7065 0 2.99476 0.298646 2.79558 0.559913 2.5234 0.896062 2.39734 2.54583 1.77872 4.29054 2.25711 5.97354 2.39734 6.27218 2.49693 6.79321 2.39069 6.8696 2.69611 6.95665 3.04431 6.52605 3.33832 6.27231 3.59206 5.69321 4.17117 5.20918 4.24517 4.48019 4.48813 4.18154 4.38854 3.80676 4.41212 3.58412 4.18948 3.36149 3.96684 3.28548 3.60824 3.28548 3.29341 3.28548 2.97858 3.38745 2.64318 3.58412 2.39734 4.00519 1.87104 4.78611 1.69807 5.37625 1.5014 6.17272 1.60099 7.02037 1.5019 7.76566 1.80004 8.05804 1.91694 7.15119 1.95783 6.8696 2.09869 4.55331 3.25691 7.3298 2.24407 5.0776 2.99476 4.97801 3.29341 5.00147 3.6682 4.77883 3.89083 4.14868 4.52099 2.57693 3.97186 2.09077 3.89083 1.71373 3.76515 0.47688 3.44004 0.298771 2.99476 0.181872 2.70239 0.341166 2.28169 0.597417 2.09869 1.10979 1.73269 1.79212 1.70045 2.38942 1.5014L5.0776 0.605324C5.37625 0.505733 5.66185 0.351204 5.97354 0.306676 8.6557-0.0766376 7.36028 0.00790208 9.85643 0.00790208" stroke="#FF99FF" stroke-width="1.33187" stroke-miterlimit="8" fill="none" fill-rule="evenodd" transform="matrix(1.00007 0.0410542 -0.0410168 0.999158 207.892 249.88)"/><path d="M0 3.58412C0.663771 3.84965 1.31939 4.13626 1.99119 4.38059 2.78014 4.66745 3.6821 4.71135 4.38061 5.17706 5.92465 6.20633 5.12127 5.82214 6.77004 6.37177 9.95594 4.24789 6.10627 7.03554 8.76123 4.38059 9.09964 4.04219 9.5577 3.84965 9.95594 3.58412 10.2215 3.18588 10.414 2.72782 10.7524 2.38941 11.0908 2.05101 11.6481 1.96672 11.9471 1.59294 13.5875-0.457438 11.1579 0.991889 13.1418 0" stroke="#000000" stroke-width="1.33187" stroke-miterlimit="8" fill="none" fill-rule="evenodd" transform="matrix(1.00007 0.0410542 -0.0410168 0.999158 206.029 249.114)"/><path d="M9.55765 0C9.42495 1.59295 9.37064 3.19443 9.15942 4.77884 9.10398 5.19489 9.02345 5.64581 8.76118 5.97356 8.19977 6.67533 7.15883 6.90587 6.37177 7.16827 5.17706 7.03556 3.96643 7.00584 2.78765 6.77003 1.96434 6.60534 0.773643 6.7245 0.398236 5.97356L0 5.17708" stroke="#000000" stroke-width="1.33187" stroke-miterlimit="8" fill="none" fill-rule="evenodd" transform="matrix(1.00007 0.0410542 -0.0410168 0.999158 203.378 255.382)"/><path d="M0 2.78764C0.398236 3.45141 0.447906 4.57512 1.19471 4.77882 1.68877 4.91353 4.53061 3.9323 5.57531 3.58411 5.84084 3.18588 6.03337 2.72781 6.37178 2.38941 6.71019 2.051 7.26747 1.96671 7.56649 1.59294 7.82876 1.26519 7.77696 0.773641 7.96472 0.398235 8.04864 0.230286 8.23026 0.132703 8.36296 0" stroke="#000000" stroke-width="1.33187" stroke-miterlimit="8" fill="none" fill-rule="evenodd" transform="matrix(1.00007 0.0410542 -0.0410168 0.999158 212.041 258.129)"/><path d="M0 7.8263C-2.35314e-15 3.50395 3.50394-1.17657e-15 7.82628 0L24.6441 0 24.6441 0 61.6102 0 140.038 0C144.361-2.35315e-15 147.865 3.50395 147.865 7.8263L147.865 27.3916 147.865 27.3916 147.865 39.1309 147.865 39.1307C147.865 43.453 144.361 46.957 140.038 46.957L61.6102 46.957 27.1169 62.8505 24.6441 46.957 7.82628 46.957C3.50394 46.957-1.17657e-15 43.453 0 39.1307L0 39.1309 0 27.3916 0 27.3916Z" stroke="#000000" stroke-width="1.33186" stroke-miterlimit="8" fill="#FCFDFE" fill-rule="evenodd" transform="matrix(1.00092 0 -0 1 173.5 134.377)"/><text font-family="GulimChe,GulimChe_MSFontService,sans-serif" font-weight="400" font-size="19" transform="matrix(1 0 0 0.999085 200.127 165)">자신읎나<tspan x="74.6526" y="0">?!</tspan></text><path d="M0-3.90011C6.45512e-16-1.74614-2.27003 4.96536e-16-5.07026 9.93072e-16-7.87049 1.98614e-15-10.1405-1.74614-10.1405-3.90011-10.1405-6.05408-7.87049-7.80022-5.07026-7.80022-2.27003-7.80022 3.22756e-15-6.05408 0-3.90011Z" fill-rule="evenodd" transform="matrix(1.00007 0.0410543 0.0410169 -0.999158 230.736 239.591)"/><path d="M0 6.99354C0.563538 6.22115 1.14944 5.46774 1.69075 4.67652 1.99562 4.23092 2.10531 3.58142 2.53612 3.2863 3.29177 2.76846 4.33085 2.90142 5.07225 2.3595 6.02159 1.66563 7.50293 0.230754 8.87643 0.0424727 9.57549-0.0532733 10.2853 0.0424727 10.9899 0.0424727" stroke="#000000" stroke-width="1.33186" stroke-miterlimit="8" fill="none" fill-rule="evenodd" transform="matrix(1.00092 0 -0 1 220.5 230.289)"/><path d="M12.9881 3.99632C12.2149 3.70707 11.4136 3.47697 10.6688 3.12869 10.1701 2.89545 9.78664 2.47283 9.2772 2.26105 8.38352 1.88967 7.42176 1.68267 6.49404 1.39341 6.03018 1.24885 5.50934 1.21319 5.10246 0.959593 4.6386 0.670335 4.25933 0.185278 3.71088 0.0919559 2.49389-0.115047 1.23701 0.0919559 0 0.0919559" stroke="#000000" stroke-width="1.33186" stroke-miterlimit="8" fill="none" fill-rule="evenodd" transform="matrix(1.00092 0 -0 1 191.5 232.287)"/><path d="M0.0370237 1.4166C-0.200047 1.94484 0.749281 3.53077 1.459 4.23381 1.76116 4.53313 2.13513 4.7662 2.52552 4.93804 3.21031 5.23958 3.9475 5.40758 4.65841 5.64242L5.72493 5.99454C5.962 5.64242 6.10233 5.20246 6.43599 4.93804 6.7286 4.70616 7.23738 4.84843 7.50237 4.58593 9.74334 2.36602 8.38601 3.18738 9.27995 1.4166 9.47104 1.03801 9.75394 0.712217 9.99086 0.360101 8.13117-0.253919 9.71751 0.0350489 7.85797 0.360101 6.20758 0.648626 2.88098 1.06433 2.88098 1.06433 0.635672 1.80583 0.274094 0.888348 0.0370237 1.4166Z" stroke="#000000" stroke-width="1.33186" stroke-miterlimit="8" fill="#FF0000" fill-rule="evenodd" transform="matrix(1.00092 0 -0 1 208.5 262.26)"/></g></svg>